<?xml version="1.0" encoding="utf-8"?>
<!-- Generator: Adobe Illustrator 27.3.1, SVG Export Plug-In . SVG Version: 6.00 Build 0)  -->
<svg version="1.1"
	 id="svg2" xmlns:sodipodi="http://sodipodi.sourceforge.net/DTD/sodipodi-0.dtd" xmlns:svg="http://www.w3.org/2000/svg" xmlns:inkscape="http://www.inkscape.org/namespaces/inkscape" sodipodi:docname="RAA_logo_farg_cmyk.eps"
	 xmlns="http://www.w3.org/2000/svg" xmlns:xlink="http://www.w3.org/1999/xlink" x="0px" y="0px" viewBox="0 0 459.5 96.4"
	 style="enable-background:new 0 0 459.5 96.4;" xml:space="preserve">
<style type="text/css">
	.st0{fill:#DD452D;}
	.st1{fill:#FFFFFF;}
</style>
<sodipodi:namedview  bordercolor="#000000" borderopacity="0.25" id="namedview4" inkscape:deskcolor="#d1d1d1" inkscape:pagecheckerboard="0" inkscape:pageopacity="0.0" inkscape:showpageshadow="2" pagecolor="#ffffff">
	</sodipodi:namedview>
<g id="g8" transform="matrix(1.3333333,0,0,-1.3333333,0,96.426667)" inkscape:groupmode="layer" inkscape:label="ink_ext_XXXXXX">
	<g id="g10" transform="scale(0.1)">
		<path id="path12" class="st0" d="M486.1,426.8L486.1,426.8l0,64h0.1v85h0.1c1.5,46.7,39.7,84.1,86.8,84.1
			c48,0,86.8-38.8,86.8-86.8c0-47-37.4-85.3-84.1-86.7v-0.1h-53.4v-59.3H575c81.8,0,148.1,66.3,148.1,148.1
			c0,81.9-66.3,148.2-148.1,148.2c-81.8,0-148.1-66.3-148.1-148.2V332.6h59.2L486.1,426.8z M148.2,426.9h242.4v59.2h-94.2v0h-63.9v0
			h-85v0.1c-46.7,1.5-84.1,39.7-84.1,86.8c0,48,38.9,86.8,86.8,86.8c47,0,85.3-37.4,86.8-84.1h0.1v-53.4h59.3v52.6
			c0,81.8-66.3,148.1-148.2,148.1c-81.8,0-148.2-66.3-148.2-148.1C0.1,493.2,66.4,426.9,148.2,426.9 M237,296.5L237,296.5l0-64H237
			v-85h-0.1c-1.5-46.7-39.7-84.1-86.8-84.1c-48,0-86.8,38.9-86.8,86.8c0,47,37.4,85.3,84.1,86.8v0.1h53.4v59.3h-52.6
			C66.3,296.5,0,230.1,0,148.3C0,66.5,66.3,0.1,148.1,0.1c81.8,0,148.2,66.3,148.2,148.2v242.4H237L237,296.5z M575,296.3H332.6
			v-59.2h94.2v0h63.9v0h85v-0.1c46.7-1.5,84.1-39.7,84.1-86.8c0-48-38.8-86.9-86.8-86.9c-47,0-85.3,37.4-86.8,84.1h-0.1v53.4h-59.3
			v-52.6C426.8,66.3,493.1,0,575,0c81.8,0,148.1,66.3,148.1,148.1C723.1,230,656.8,296.3,575,296.3"/>
		<path id="path14" class="st1" d="M3302.6,105.8h-45.7V70.2h51.1V52h-73.3v121.4h70.6v-18.2h-48.4v-31.3h45.7V105.8"/>
		<path id="path16" class="st1" d="M3382.9,154.8h-34.6v18.5h91.6v-18.5H3405V52h-22.1V154.8"/>
		<path id="path18" class="st1" d="M831.3,118.1h13.1c14.9,0,24.3,7.9,24.3,20c0,13.3-9.4,19.4-23.8,19.4c-7,0-11.5-0.5-13.7-1.1
			L831.3,118.1z M809.4,171.7c8.3,1.4,20.7,2.5,33.5,2.5c17.5,0,29.3-2.9,37.4-9.7c6.7-5.6,10.4-14,10.4-24.3
			c0-15.7-10.6-26.3-22-30.4v-0.5c8.6-3.2,13.9-11.7,16.9-23.4c3.8-15.1,7-29.2,9.5-33.8h-22.9c-1.8,3.6-4.7,13.5-8.1,28.6
			c-3.4,15.8-9.2,20.9-21.8,21.2h-11.2V52h-22V171.7"/>
		<path id="path20" class="st1" d="M964.5,173.3V52h-22.1v121.4H964.5"/>
		<path id="path22" class="st1" d="M1020.5,173.3h22v-55.8h0.5c2.9,4.7,5.9,9,8.8,13.1l31.7,42.7h27.4l-41.8-51.7l44.5-69.7h-25.9
			l-34.4,55.6l-10.8-13V52h-22L1020.5,173.3"/>
		<path id="path24" class="st1" d="M1155.3,76.1c7.2-4.1,18-7.7,29.3-7.7c14.2,0,22.2,6.7,22.2,16.6c0,9.2-6.1,14.6-21.6,20.2
			c-20,7.2-32.8,17.8-32.8,35.3c0,19.8,16.6,34.9,42.8,34.9c13.1,0,22.9-2.9,29.2-6.1l-5.4-17.8c-4.3,2.3-12.8,5.8-24.1,5.8
			c-14.1,0-20.2-7.6-20.2-14.6c0-9.4,7-13.7,23.2-20c21.1-7.9,31.3-18.5,31.3-36c0-19.4-14.8-36.6-46.1-36.6
			c-12.8,0-26.1,3.8-32.8,7.7L1155.3,76.1"/>
		<path id="path26" class="st1" d="M1338.9,103.1l-9.5,29.9c-2.3,7.4-4.3,15.7-6.1,22.7h-0.4c-1.8-7-3.6-15.5-5.8-22.7l-9.4-29.9
			H1338.9z M1304.2,86.4L1293.7,52h-22.9l38.9,121.4h28.3L1377.5,52h-23.8l-11,34.4H1304.2"/>
		<path id="path28" class="st1" d="M1424.9,52v121.4h25.2l31.3-52c8.1-13.5,15.1-27.6,20.7-40.7h0.4c-1.4,16.2-2,31.9-2,50.4v42.3
			h20.5V52h-22.9l-31.7,53.5c-7.7,13.1-15.8,28.1-21.8,41.8l-0.5-0.2c0.9-15.7,1.1-31.7,1.1-51.7V52H1424.9"/>
		<path id="path30" class="st1" d="M1600.3,154.8h-34.6v18.5h91.6v-18.5h-34.9V52h-22.2V154.8"/>
		<path id="path32" class="st1" d="M1724.1,173.3V52H1702v121.4H1724.1"/>
		<path id="path34" class="st1" d="M1780.1,173.3h22v-55.8h0.5c2.9,4.7,5.9,9,8.8,13.1l31.7,42.7h27.4l-41.8-51.7l44.5-69.7h-25.9
			l-34.4,55.6l-10.8-13V52h-22L1780.1,173.3"/>
		<path id="path36" class="st1" d="M1944.6,52l-39.2,121.4h24.1l16.6-55.1c4.7-15.3,8.7-29.5,11.9-44.3h0.4
			c3.2,14.4,7.6,29.2,12.4,43.9l17.6,55.5h23.6L1970,52H1944.6"/>
		<path id="path38" class="st1" d="M2104.6,103.1l-9.5,29.9c-2.3,7.4-4.3,15.7-6.1,22.7h-0.4c-1.8-7-3.6-15.5-5.8-22.7l-9.4-29.9
			H2104.6z M2069.9,86.4L2059.4,52h-22.9l38.9,121.4h28.3L2143.2,52h-23.8l-11,34.4H2069.9"/>
		<path id="path40" class="st1" d="M2213.2,118.1h13.1c14.9,0,24.3,7.9,24.3,20c0,13.3-9.4,19.4-23.8,19.4c-7,0-11.5-0.5-13.7-1.1
			V118.1z M2191.2,171.7c8.3,1.4,20.7,2.5,33.5,2.5c17.5,0,29.4-2.9,37.4-9.7c6.7-5.6,10.4-14,10.4-24.3c0-15.7-10.6-26.3-22-30.4
			v-0.5c8.6-3.2,13.9-11.7,16.9-23.4c3.8-15.1,7-29.2,9.5-33.8h-22.9c-1.8,3.6-4.7,13.5-8.1,28.6c-3.4,15.8-9.2,20.9-21.8,21.2
			h-11.2V52h-22L2191.2,171.7"/>
		<path id="path42" class="st1" d="M2346.4,173.3V52h-22.1v121.4H2346.4"/>
		<path id="path44" class="st1" d="M2470.2,105.8h-45.7V70.2h51.1V52h-73.3v121.4h70.6v-18.2h-48.4v-31.3h45.7V105.8"/>
		<path id="path46" class="st1" d="M2588.1,180.7c-6.1,0-10.4,5-10.4,11c0,6.1,4.5,10.8,10.8,10.8c5.9,0,10.4-4.7,10.4-10.8
			c0-5.9-4.3-11-10.6-11H2588.1z M2584.5,103.1L2575,133c-2.3,7.4-4.3,15.7-6.1,22.7h-0.4c-1.8-7-3.6-15.5-5.8-22.7l-9.4-29.9
			L2584.5,103.1z M2552.7,180.7c-6.1,0-10.6,5-10.6,11c0,6.1,4.7,10.8,10.8,10.8c5.9,0,10.4-4.7,10.4-10.8c0-5.9-4.3-11-10.4-11
			H2552.7z M2549.8,86.4L2539.3,52h-22.9l38.9,121.4h28.3L2623.1,52h-23.8l-11,34.4L2549.8,86.4"/>
		<path id="path48" class="st1" d="M2772.5,101.5c-0.7,15.7-1.6,34.6-1.4,51.1h-0.6c-4-15-9-31.3-14.4-46.6l-17.6-52.6h-17.1
			l-16.2,51.9c-4.7,15.5-9,32.1-12.2,47.4h-0.4c-0.5-16-1.2-35.3-2.1-51.9l-2.7-48.8h-20.7l8.1,121.4h29.2l15.8-48.8
			c4.3-14.2,8.1-28.6,11.2-42.1h0.5c3.2,13.1,7.4,28.1,12.1,42.3l16.7,48.6h28.8l7-121.4h-21.6L2772.5,101.5"/>
		<path id="path50" class="st1" d="M2871.3,68c2.9-0.5,6.7-0.5,11.7-0.5c14.2,0,26.8,5.4,26.8,20.3c0,14-12.2,19.8-27.6,19.8h-11V68
			z M2871.3,123.8h11.4c15.3,0,23.9,7.2,23.9,17.5c0,11.4-8.6,16.6-22.7,16.6c-6.5,0-10.3-0.4-12.6-0.9V123.8z M2849.3,171.7
			c7,1.4,19.8,2.5,32.2,2.5c16.4,0,26.5-2,34.8-7.7c7.6-4.5,12.6-12.4,12.6-22.7c0-11.2-7-21.4-20.2-26.3v-0.4
			c12.8-3.2,24.5-13.3,24.5-30.1c0-10.8-4.7-19.3-11.7-25c-8.6-7.6-22.9-11.3-45-11.3c-12.2,0-21.6,0.9-27.2,1.6L2849.3,171.7"/>
		<path id="path52" class="st1" d="M3051.5,105.8h-45.8V70.2h51.1V52h-73.3v121.4h70.6v-18.2h-48.4v-31.3h45.8V105.8"/>
		<path id="path54" class="st1" d="M3131.7,154.8h-34.6v18.5h91.7v-18.5h-34.9V52h-22.1V154.8"/>
		<path id="path56" class="st1" d="M809.3,259.1c5.5-3.1,13.7-5.9,22.3-5.9c10.8,0,16.8,5,16.8,12.6c0,7-4.6,11.1-16.4,15.3
			c-15.2,5.5-24.9,13.5-24.9,26.8c0,15,12.6,26.5,32.5,26.5c10,0,17.3-2.2,22.1-4.6l-4.1-13.5c-3.3,1.8-9.7,4.4-18.3,4.4
			c-10.7,0-15.3-5.7-15.3-11.1c0-7.1,5.3-10.4,17.6-15.2c16-6,23.8-14.1,23.8-27.3c0-14.7-11.2-27.7-35-27.7
			c-9.7,0-19.8,2.9-24.9,5.9L809.3,259.1"/>
		<path id="path58" class="st1" d="M908.5,240.8l-22.5,92h17.9l8.7-41.8c2.3-11.2,4.5-22.9,6-32.1h0.3c1.5,9.7,4.1,20.6,6.7,32.2
			l10,41.6h17.6l9.2-42.3c2.3-10.9,4.2-21.2,5.6-31.1h0.3c1.6,10.1,3.8,20.6,6.3,31.8l9.6,41.6h17.1l-24.7-92h-18l-9.6,43.3
			c-2.3,10.5-4,19.3-5.1,29.2h-0.3c-1.6-9.8-3.4-18.7-6.1-29.2l-10.7-43.3H908.5"/>
		<path id="path60" class="st1" d="M1076.9,281.6h-34.7v-27h38.8v-13.8h-55.6v92h53.5V319h-36.7v-23.8h34.7L1076.9,281.6"/>
		<path id="path62" class="st1" d="M1125.6,253.6c2.3-0.4,5.9-0.4,9.3-0.4c21.8-0.1,34.8,11.9,34.8,35.2c0.1,20.3-11.6,32-32.6,32
			c-5.3,0-9.2-0.4-11.5-1V253.6z M1108.8,331.6c7.4,1.2,16.8,1.9,26.8,1.9c17.2,0,29.1-3.5,37.6-10.6c8.9-7.2,14.3-18.2,14.3-33.9
			c0-16.4-5.6-28.7-14.3-36.6c-9.2-8.3-23.8-12.6-41.7-12.6c-9.8,0-17.2,0.5-22.7,1.2V331.6"/>
		<path id="path64" class="st1" d="M1231.9,332.8v-92h-16.8v92H1231.9"/>
		<path id="path66" class="st1" d="M1263.8,259.1c5.5-3.1,13.7-5.9,22.3-5.9c10.8,0,16.8,5,16.8,12.6c0,7-4.6,11.1-16.4,15.3
			c-15.2,5.5-24.8,13.5-24.8,26.8c0,15,12.6,26.5,32.5,26.5c10,0,17.3-2.2,22.1-4.6l-4.1-13.5c-3.3,1.8-9.7,4.4-18.3,4.4
			c-10.7,0-15.3-5.7-15.3-11.1c0-7.1,5.3-10.4,17.6-15.2c16-6,23.8-14.1,23.8-27.3c0-14.7-11.2-27.7-35-27.7
			c-9.7,0-19.8,2.9-24.8,5.9L1263.8,259.1"/>
		<path id="path68" class="st1" d="M1365,332.8V296h38.9v36.9h16.8v-92h-16.8v40.6H1365v-40.6h-16.8v92H1365"/>
		<path id="path70" class="st1" d="M1494.4,240.8v92h19.1l23.8-39.5c6.1-10.2,11.5-20.9,15.7-30.9h0.3c-1.1,12.3-1.5,24.2-1.5,38.2
			v32.1h15.6v-92H1550l-24,40.6c-5.9,10-12,21.3-16.5,31.7l-0.4-0.1c0.7-11.9,0.8-24,0.8-39.2v-32.9H1494.4"/>
		<path id="path72" class="st1" d="M1644.6,279.6l-7.2,22.7c-1.8,5.6-3.3,11.9-4.6,17.2h-0.3c-1.4-5.3-2.7-11.7-4.4-17.2l-7.1-22.7
			H1644.6z M1618.2,266.9l-7.9-26.1h-17.3l29.5,92h21.4l29.9-92h-18l-8.3,26.1H1618.2"/>
		<path id="path74" class="st1" d="M1706.2,318.8H1680v14.1h69.5v-14.1H1723v-78h-16.8V318.8"/>
		<path id="path76" class="st1" d="M1790.2,332.8v-92h-16.8v92H1790.2"/>
		<path id="path78" class="st1" d="M1835.5,286.4c0-18.7,9.4-33.7,25.5-33.7c16.2,0,25.4,15.2,25.4,34.4c0,17.3-8.6,33.9-25.4,33.9
			C1844.4,320.9,1835.5,305.4,1835.5,286.4z M1904.2,287.8c0-30.9-18.7-48.5-44.1-48.5c-25.9,0-42.3,19.8-42.3,46.8
			c0,28.3,17.8,48.2,43.7,48.2C1888.4,334.3,1904.2,314,1904.2,287.8"/>
		<path id="path80" class="st1" d="M1931.7,240.8v92h19.1l23.8-39.5c6.2-10.2,11.5-20.9,15.7-30.9h0.3c-1.1,12.3-1.5,24.2-1.5,38.2
			v32.1h15.6v-92h-17.3l-24,40.6c-5.9,10-12,21.3-16.5,31.7l-0.4-0.1c0.7-11.9,0.8-24,0.8-39.2v-32.9H1931.7"/>
		<path id="path82" class="st1" d="M2081.9,279.6l-7.2,22.7c-1.8,5.6-3.3,11.9-4.6,17.2h-0.3c-1.4-5.3-2.7-11.7-4.4-17.2l-7.1-22.7
			H2081.9z M2055.5,266.9l-7.9-26.1h-17.3l29.5,92h21.4l29.9-92h-18l-8.3,26.1H2055.5"/>
		<path id="path84" class="st1" d="M2137,332.8h16.8v-78h37.8v-14.1H2137V332.8"/>
		<path id="path86" class="st1" d="M2265.7,332.8V296h38.9v36.9h16.8v-92h-16.8v40.6h-38.9v-40.6H2249v92H2265.7"/>
		<path id="path88" class="st1" d="M2405.3,281.6h-34.7v-27h38.8v-13.8h-55.6v92h53.5V319h-36.7v-23.8h34.7V281.6"/>
		<path id="path90" class="st1" d="M2453.8,290.9h10c11.3,0,18.4,6,18.4,15.2c0,10.1-7.1,14.7-18,14.7c-5.3,0-8.7-0.4-10.4-0.8
			V290.9z M2437.2,331.6c6.3,1.1,15.7,1.9,25.4,1.9c13.2,0,22.2-2.2,28.4-7.4c5.1-4.2,7.9-10.7,7.9-18.4c0-11.9-8.1-19.9-16.7-23.1
			v-0.4c6.6-2.5,10.5-8.9,12.8-17.8c2.9-11.5,5.3-22.1,7.2-25.7H2485c-1.4,2.7-3.5,10.2-6.1,21.7c-2.6,12-7,15.8-16.5,16.1h-8.5
			v-37.8h-16.7V331.6"/>
		<path id="path92" class="st1" d="M2544.8,332.8v-92H2528v92H2544.8"/>
		<path id="path94" class="st1" d="M2594.7,318.8h-26.2v14.1h69.5v-14.1h-26.5v-78h-16.8V318.8"/>
		<path id="path96" class="st1" d="M2696.7,279.6l-7.2,22.7c-1.8,5.6-3.3,11.9-4.6,17.2h-0.3c-1.4-5.3-2.7-11.7-4.4-17.2l-7.1-22.7
			H2696.7z M2670.3,266.9l-7.9-26.1h-17.3l29.5,92h21.4l29.9-92h-18l-8.3,26.1H2670.3"/>
		<path id="path98" class="st1" d="M2822.7,245c-5.9-2.2-17.4-5.2-29.6-5.2c-15.6,0-27.3,4-36.1,12.3c-8.2,7.8-13,19.9-12.8,33.9
			c0,29.1,20.8,47.8,51.2,47.8c11.3,0,20.2-2.3,24.4-4.4l-3.7-13.5c-5.1,2.2-11.2,4-20.9,4c-19.7,0-33.5-11.6-33.5-33
			c0-20.9,12.8-33.3,32-33.3c6,0,10.5,0.8,12.7,1.9v22.9h-16.2v13.2h32.5V245"/>
		<path id="path100" class="st1" d="M2904.4,281.6h-34.7v-27h38.8v-13.8H2853v92h53.5V319h-36.7v-23.8h34.7V281.6"/>
		<path id="path102" class="st1" d="M2994.4,252.9c2.2-0.4,5-0.4,8.9-0.4c10.8,0,20.4,4.1,20.4,15.4c0,10.7-9.3,15-20.9,15h-8.3
			L2994.4,252.9z M2994.4,295.3h8.6c11.6,0,18.2,5.5,18.2,13.2c0,8.6-6.6,12.6-17.2,12.6c-4.9,0-7.8-0.3-9.6-0.7V295.3z
			 M2977.7,331.6c5.3,1.1,15,1.9,24.4,1.9c12.4,0,20.1-1.5,26.4-5.9c5.7-3.4,9.6-9.4,9.6-17.2c0-8.5-5.3-16.2-15.3-19.9v-0.3
			c9.7-2.5,18.6-10.1,18.6-22.8c0-8.2-3.6-14.6-8.9-19c-6.6-5.7-17.3-8.6-34.1-8.6c-9.3,0-16.4,0.7-20.6,1.2L2977.7,331.6"/>
		<path id="path104" class="st1" d="M3082.4,286.4c0-18.7,9.4-33.7,25.5-33.7c16.3,0,25.4,15.2,25.4,34.4c0,17.3-8.6,33.9-25.4,33.9
			C3091.3,320.9,3082.4,305.4,3082.4,286.4z M3151.1,287.8c0-30.9-18.7-48.5-44.1-48.5c-25.9,0-42.3,19.8-42.3,46.8
			c0,28.3,17.8,48.2,43.7,48.2C3135.3,334.3,3151.1,314,3151.1,287.8"/>
		<path id="path106" class="st1" d="M3221.4,279.6l-7.2,22.7c-1.8,5.6-3.3,11.9-4.6,17.2h-0.3c-1.4-5.3-2.7-11.7-4.4-17.2l-7.1-22.7
			H3221.4z M3195,266.9l-7.9-26.1h-17.3l29.5,92h21.4l29.9-92h-18l-8.3,26.1H3195"/>
		<path id="path108" class="st1" d="M3293.2,290.9h10c11.3,0,18.4,6,18.4,15.2c0,10.1-7.1,14.7-18,14.7c-5.3,0-8.7-0.4-10.4-0.8
			V290.9z M3276.5,331.6c6.3,1.1,15.7,1.9,25.4,1.9c13.2,0,22.3-2.2,28.4-7.4c5.1-4.2,7.9-10.7,7.9-18.4c0-11.9-8.1-19.9-16.7-23.1
			v-0.4c6.6-2.5,10.5-8.9,12.8-17.8c2.9-11.5,5.3-22.1,7.2-25.7h-17.3c-1.4,2.7-3.6,10.2-6.1,21.7c-2.6,12-7,15.8-16.5,16.1h-8.5
			v-37.8h-16.7V331.6"/>
		<path id="path110" class="st1" d="M3384.1,253.6c2.3-0.4,5.9-0.4,9.3-0.4c21.9-0.1,34.8,11.9,34.8,35.2c0.1,20.3-11.6,32-32.6,32
			c-5.3,0-9.1-0.4-11.5-1L3384.1,253.6z M3367.3,331.6c7.4,1.2,16.8,1.9,26.8,1.9c17.2,0,29.1-3.5,37.6-10.6
			c8.9-7.2,14.3-18.2,14.3-33.9c0-16.4-5.6-28.7-14.3-36.6c-9.1-8.3-23.8-12.6-41.7-12.6c-9.8,0-17.2,0.5-22.7,1.2L3367.3,331.6"/>
	</g>
</g>
</svg>
