<?xml version="1.0" encoding="UTF-8" standalone="no"?>
<!-- Created with Inkscape (http://www.inkscape.org/) -->

<svg
   version="1.1"
   id="svg2"
   width="459.45334"
   height="96.426666"
   viewBox="0 0 459.45334 96.426666"
   sodipodi:docname="RAA_logo_farg_cmyk.eps"
   xmlns:inkscape="http://www.inkscape.org/namespaces/inkscape"
   xmlns:sodipodi="http://sodipodi.sourceforge.net/DTD/sodipodi-0.dtd"
   xmlns="http://www.w3.org/2000/svg"
   xmlns:svg="http://www.w3.org/2000/svg">
  <defs
     id="defs6" />
  <sodipodi:namedview
     id="namedview4"
     pagecolor="#ffffff"
     bordercolor="#000000"
     borderopacity="0.25"
     inkscape:showpageshadow="2"
     inkscape:pageopacity="0.0"
     inkscape:pagecheckerboard="0"
     inkscape:deskcolor="#d1d1d1" />
  <g
     id="g8"
     inkscape:groupmode="layer"
     inkscape:label="ink_ext_XXXXXX"
     transform="matrix(1.3333333,0,0,-1.3333333,0,96.426667)">
    <g
       id="g10"
       transform="scale(0.1)">
      <path
         d="m 486.098,426.836 h 0.031 v 63.953 h 0.062 v 84.981 h 0.059 c 1.461,46.652 39.73,84.054 86.77,84.054 47.96,0 86.839,-38.847 86.839,-86.847 0,-47.02 -37.41,-85.282 -84.066,-86.747 v -0.089 h -53.406 v -59.305 h 52.625 c 81.808,0 148.148,66.309 148.148,148.133 0,81.855 -66.34,148.176 -148.148,148.176 -81.844,0 -148.141,-66.321 -148.141,-148.176 V 332.59 h 59.227 z m -337.868,0.059 h 242.391 v 59.226 h -94.238 v 0.039 h -63.949 v 0.039 h -84.973 v 0.071 c -46.68,1.464 -84.0704,39.746 -84.0704,86.765 0,48 38.8794,86.848 86.8394,86.848 47.04,0 85.301,-37.434 86.762,-84.055 h 0.071 v -53.406 h 59.32 v 52.637 c 0,81.796 -66.305,148.132 -148.153,148.132 C 66.4297,723.191 0.078125,656.855 0.078125,575.059 0.078125,493.215 66.4297,426.895 148.23,426.895 M 237.039,296.453 H 237.02 V 232.5 h -0.051 v -84.992 h -0.059 c -1.48,-46.66 -39.73,-84.051 -86.789,-84.051 -47.965,0 -86.8476,38.856 -86.8476,86.836 0,47.043 37.4066,85.301 84.0856,86.766 v 0.097 h 53.395 v 59.297 H 148.141 C 66.2969,296.453 0,230.129 0,148.293 0,66.4727 66.2969,0.136719 148.141,0.136719 c 81.847,0 148.16,66.335981 148.16,148.156281 v 242.379 h -59.262 z m 337.934,-0.156 H 332.578 v -59.246 h 94.235 v -0.031 h 63.949 v -0.047 h 85 v -0.059 c 46.66,-1.465 84.058,-39.738 84.058,-86.777 0,-47.981 -38.847,-86.8675 -86.832,-86.8675 -47.035,0 -85.316,37.4455 -86.789,84.0825 h -0.062 v 53.41 H 426.813 V 148.133 C 426.813,66.3164 493.121,0 574.973,0 c 81.82,0 148.136,66.3164 148.136,148.133 0,81.847 -66.316,148.164 -148.136,148.164"
         style="fill:#dd452d;fill-opacity:1;fill-rule:nonzero;stroke:none"
         id="path12" />
      <path
         d="m 3302.59,105.809 h -45.73 V 70.1563 h 51.13 V 51.9727 h -73.28 V 173.328 h 70.58 v -18.183 h -48.43 v -31.329 h 45.73 v -18.007"
         style="fill:#231f20;fill-opacity:1;fill-rule:nonzero;stroke:none"
         id="path14" />
      <path
         d="m 3382.85,154.785 h -34.57 v 18.543 h 91.65 V 154.785 H 3405 V 51.9727 h -22.15 V 154.785"
         style="fill:#231f20;fill-opacity:1;fill-rule:nonzero;stroke:none"
         id="path16" />
      <path
         d="m 831.316,118.055 h 13.149 c 14.937,0 24.305,7.922 24.305,19.98 0,13.32 -9.368,19.445 -23.77,19.445 -7.02,0 -11.523,-0.539 -13.684,-1.074 z m -21.964,53.656 c 8.281,1.434 20.707,2.516 33.492,2.516 17.465,0 29.347,-2.879 37.449,-9.723 6.66,-5.578 10.445,-14.043 10.445,-24.309 0,-15.664 -10.625,-26.277 -21.968,-30.429 v -0.539 c 8.64,-3.243 13.863,-11.6997 16.921,-23.4067 3.786,-15.1289 7.024,-29.1719 9.547,-33.8476 h -22.871 c -1.797,3.6015 -4.676,13.5039 -8.097,28.6328 -3.426,15.8398 -9.188,20.8785 -21.79,21.2385 H 831.316 V 51.9727 H 809.352 V 171.711"
         style="fill:#231f20;fill-opacity:1;fill-rule:nonzero;stroke:none"
         id="path18" />
      <path
         d="M 964.516,173.328 V 51.9727 H 942.367 V 173.328 h 22.149"
         style="fill:#231f20;fill-opacity:1;fill-rule:nonzero;stroke:none"
         id="path20" />
      <path
         d="m 1020.49,173.328 h 21.97 v -55.82 h 0.53 c 2.88,4.687 5.95,9.004 8.83,13.144 l 31.69,42.676 h 27.36 l -41.77,-51.68 44.48,-69.6753 h -25.93 l -34.39,55.6323 -10.8,-12.9566 V 51.9727 h -21.97 V 173.328"
         style="fill:#231f20;fill-opacity:1;fill-rule:nonzero;stroke:none"
         id="path22" />
      <path
         d="m 1155.31,76.1016 c 7.19,-4.1368 18,-7.7422 29.34,-7.7422 14.23,0 22.15,6.6601 22.15,16.5625 0,9.1797 -6.12,14.582 -21.6,20.1681 -19.99,7.207 -32.77,17.82 -32.77,35.289 0,19.805 16.56,34.934 42.85,34.934 13.14,0 22.86,-2.883 29.17,-6.125 l -5.41,-17.833 c -4.32,2.344 -12.78,5.762 -24.12,5.762 -14.05,0 -20.17,-7.558 -20.17,-14.578 0,-9.367 7.02,-13.684 23.23,-19.992 21.06,-7.918 31.33,-18.543 31.33,-36.004 0,-19.4453 -14.77,-36.5547 -46.1,-36.5547 -12.78,0 -26.11,3.7812 -32.77,7.7461 l 4.87,18.3672"
         style="fill:#231f20;fill-opacity:1;fill-rule:nonzero;stroke:none"
         id="path24" />
      <path
         d="m 1338.92,103.105 -9.54,29.891 c -2.34,7.383 -4.32,15.664 -6.12,22.688 h -0.36 c -1.8,-7.024 -3.6,-15.489 -5.77,-22.688 l -9.36,-29.891 z m -34.75,-16.7378 -10.44,-34.3945 h -22.87 l 38.89,121.3553 h 28.27 l 39.43,-121.3553 h -23.76 l -10.99,34.3945 h -38.53"
         style="fill:#231f20;fill-opacity:1;fill-rule:nonzero;stroke:none"
         id="path26" />
      <path
         d="M 1424.94,51.9727 V 173.328 h 25.21 l 31.33,-52.039 c 8.1,-13.496 15.12,-27.5507 20.7,-40.6835 h 0.36 c -1.44,16.1992 -1.97,31.8635 -1.97,50.4105 v 42.312 h 20.52 V 51.9727 h -22.87 l -31.69,53.4763 c -7.74,13.145 -15.84,28.086 -21.78,41.766 l -0.54,-0.172 c 0.9,-15.664 1.08,-31.691 1.08,-51.6836 V 51.9727 h -20.35"
         style="fill:#231f20;fill-opacity:1;fill-rule:nonzero;stroke:none"
         id="path28" />
      <path
         d="m 1600.27,154.785 h -34.57 v 18.543 h 91.64 v -18.543 h -34.92 V 51.9727 h -22.15 V 154.785"
         style="fill:#231f20;fill-opacity:1;fill-rule:nonzero;stroke:none"
         id="path30" />
      <path
         d="M 1724.11,173.328 V 51.9727 h -22.15 V 173.328 h 22.15"
         style="fill:#231f20;fill-opacity:1;fill-rule:nonzero;stroke:none"
         id="path32" />
      <path
         d="m 1780.08,173.328 h 21.97 v -55.82 h 0.53 c 2.88,4.687 5.94,9.004 8.83,13.144 l 31.68,42.676 h 27.37 l -41.76,-51.68 44.47,-69.6753 h -25.93 l -34.39,55.6323 -10.8,-12.9566 V 51.9727 h -21.97 V 173.328"
         style="fill:#231f20;fill-opacity:1;fill-rule:nonzero;stroke:none"
         id="path34" />
      <path
         d="m 1944.6,51.9727 -39.24,121.3553 h 24.12 l 16.56,-55.098 c 4.69,-15.3 8.65,-29.5308 11.89,-44.2964 h 0.36 c 3.24,14.4062 7.55,29.1714 12.42,43.9374 l 17.64,55.457 h 23.59 L 1969.99,51.9727 h -25.39"
         style="fill:#231f20;fill-opacity:1;fill-rule:nonzero;stroke:none"
         id="path36" />
      <path
         d="m 2104.63,103.105 -9.54,29.891 c -2.34,7.383 -4.32,15.664 -6.12,22.688 h -0.36 c -1.8,-7.024 -3.61,-15.489 -5.76,-22.688 l -9.37,-29.891 z m -34.74,-16.7378 -10.45,-34.3945 h -22.87 l 38.89,121.3553 h 28.28 l 39.43,-121.3553 h -23.77 l -10.99,34.3945 h -38.52"
         style="fill:#231f20;fill-opacity:1;fill-rule:nonzero;stroke:none"
         id="path38" />
      <path
         d="m 2213.18,118.055 h 13.14 c 14.94,0 24.31,7.922 24.31,19.98 0,13.32 -9.37,19.445 -23.77,19.445 -7.02,0 -11.52,-0.539 -13.68,-1.074 z m -21.96,53.656 c 8.28,1.434 20.7,2.516 33.48,2.516 17.47,0 29.35,-2.879 37.45,-9.723 6.66,-5.578 10.45,-14.043 10.45,-24.309 0,-15.664 -10.62,-26.277 -21.97,-30.429 v -0.539 c 8.64,-3.243 13.87,-11.6997 16.92,-23.4067 3.78,-15.1289 7.03,-29.1719 9.54,-33.8476 h -22.87 c -1.79,3.6015 -4.66,13.5039 -8.09,28.6328 -3.43,15.8398 -9.19,20.8785 -21.79,21.2385 h -11.16 V 51.9727 h -21.96 V 171.711"
         style="fill:#231f20;fill-opacity:1;fill-rule:nonzero;stroke:none"
         id="path40" />
      <path
         d="M 2346.38,173.328 V 51.9727 h -22.15 V 173.328 h 22.15"
         style="fill:#231f20;fill-opacity:1;fill-rule:nonzero;stroke:none"
         id="path42" />
      <path
         d="M 2470.24,105.809 H 2424.5 V 70.1563 h 51.13 V 51.9727 h -73.28 V 173.328 h 70.58 v -18.183 h -48.43 v -31.329 h 45.74 v -18.007"
         style="fill:#231f20;fill-opacity:1;fill-rule:nonzero;stroke:none"
         id="path44" />
      <path
         d="m 2588.13,180.715 c -6.11,0 -10.44,5.039 -10.44,10.973 0,6.125 4.51,10.812 10.8,10.812 5.95,0 10.45,-4.687 10.45,-10.812 0,-5.934 -4.32,-10.973 -10.63,-10.973 z m -3.59,-77.61 -9.55,29.891 c -2.34,7.383 -4.32,15.664 -6.11,22.688 h -0.37 c -1.8,-7.024 -3.6,-15.489 -5.77,-22.688 l -9.36,-29.891 z m -31.88,77.61 c -6.12,0 -10.62,5.039 -10.62,10.973 0,6.125 4.68,10.812 10.8,10.812 5.94,0 10.45,-4.687 10.45,-10.812 0,-5.934 -4.32,-10.973 -10.45,-10.973 z m -2.88,-94.3478 -10.44,-34.3945 h -22.87 l 38.89,121.3553 h 28.28 l 39.42,-121.3553 h -23.75 l -11,34.3945 h -38.53"
         style="fill:#231f20;fill-opacity:1;fill-rule:nonzero;stroke:none"
         id="path46" />
      <path
         d="m 2772.47,101.484 c -0.72,15.664 -1.62,34.571 -1.44,51.145 h -0.55 c -3.97,-14.953 -9.01,-31.34 -14.4,-46.645 l -17.65,-52.5777 h -17.11 l -16.19,51.8557 c -4.69,15.492 -9.01,32.051 -12.25,47.367 h -0.37 c -0.53,-16.027 -1.25,-35.293 -2.15,-51.859 l -2.69,-48.7973 h -20.73 l 8.11,121.3553 h 29.18 l 15.84,-48.797 c 4.31,-14.218 8.1,-28.6247 11.17,-42.1287 h 0.53 c 3.24,13.1446 7.38,28.0857 12.07,42.3127 l 16.74,48.613 h 28.8 l 7.04,-121.3553 h -21.63 l -2.32,49.5113"
         style="fill:#231f20;fill-opacity:1;fill-rule:nonzero;stroke:none"
         id="path48" />
      <path
         d="m 2871.26,67.9961 c 2.87,-0.5352 6.66,-0.5352 11.7,-0.5352 14.22,0 26.83,5.3985 26.83,20.3399 0,14.0432 -12.24,19.8042 -27.55,19.8042 h -10.98 z m 0,55.8199 h 11.35 c 15.29,0 23.94,7.2 23.94,17.461 0,11.352 -8.65,16.563 -22.69,16.563 -6.49,0 -10.26,-0.36 -12.6,-0.899 z m -21.97,47.895 c 7.03,1.434 19.8,2.516 32.22,2.516 16.39,0 26.47,-1.981 34.77,-7.743 7.56,-4.504 12.6,-12.421 12.6,-22.687 0,-11.16 -7.03,-21.426 -20.18,-26.289 v -0.36 c 12.79,-3.23 24.49,-13.32 24.49,-30.0699 0,-10.8008 -4.68,-19.2578 -11.7,-25.0195 -8.65,-7.5664 -22.87,-11.3438 -45.02,-11.3438 -12.24,0 -21.6,0.8946 -27.18,1.6211 V 171.711"
         style="fill:#231f20;fill-opacity:1;fill-rule:nonzero;stroke:none"
         id="path50" />
      <path
         d="m 3051.46,105.809 h -45.75 V 70.1563 h 51.14 V 51.9727 h -73.29 V 173.328 h 70.59 v -18.183 h -48.44 v -31.329 h 45.75 v -18.007"
         style="fill:#231f20;fill-opacity:1;fill-rule:nonzero;stroke:none"
         id="path52" />
      <path
         d="m 3131.71,154.785 h -34.57 v 18.543 h 91.66 v -18.543 h -34.94 V 51.9727 h -22.15 V 154.785"
         style="fill:#231f20;fill-opacity:1;fill-rule:nonzero;stroke:none"
         id="path54" />
      <path
         d="m 809.293,259.082 c 5.465,-3.144 13.656,-5.867 22.262,-5.867 10.785,0 16.797,5.047 16.797,12.555 0,6.964 -4.645,11.066 -16.387,15.293 -15.164,5.468 -24.86,13.527 -24.86,26.769 0,15.027 12.563,26.492 32.504,26.492 9.969,0 17.344,-2.176 22.125,-4.636 l -4.097,-13.528 c -3.278,1.778 -9.699,4.375 -18.301,4.375 -10.652,0 -15.293,-5.73 -15.293,-11.062 0,-7.102 5.32,-10.383 17.613,-15.157 15.981,-6.007 23.766,-14.074 23.766,-27.312 0,-14.75 -11.199,-27.727 -34.961,-27.727 -9.699,0 -19.801,2.871 -24.856,5.879 l 3.688,13.926"
         style="fill:#231f20;fill-opacity:1;fill-rule:nonzero;stroke:none"
         id="path56" />
      <path
         d="m 908.535,240.781 -22.527,92.039 h 17.883 l 8.742,-41.785 c 2.324,-11.191 4.508,-22.941 6.012,-32.09 h 0.273 c 1.504,9.696 4.094,20.625 6.687,32.227 l 9.969,41.648 h 17.617 l 9.153,-42.332 c 2.324,-10.918 4.234,-21.164 5.601,-31.133 h 0.274 c 1.636,10.11 3.824,20.625 6.277,31.817 l 9.563,41.648 h 17.071 l -24.72,-92.039 h -18.027 l -9.559,43.289 c -2.32,10.52 -3.961,19.258 -5.054,29.231 h -0.274 c -1.637,-9.836 -3.414,-18.711 -6.141,-29.231 l -10.656,-43.289 h -18.164"
         style="fill:#231f20;fill-opacity:1;fill-rule:nonzero;stroke:none"
         id="path58" />
      <path
         d="m 1076.86,281.609 h -34.69 V 254.57 h 38.78 v -13.789 h -55.58 v 92.039 h 53.54 v -13.789 h -36.74 v -23.758 h 34.69 v -13.664"
         style="fill:#231f20;fill-opacity:1;fill-rule:nonzero;stroke:none"
         id="path60" />
      <path
         d="m 1125.57,253.621 c 2.32,-0.406 5.88,-0.406 9.29,-0.406 21.85,-0.141 34.82,11.875 34.82,35.23 0.14,20.344 -11.6,31.953 -32.64,31.953 -5.32,0 -9.15,-0.41 -11.47,-0.957 z m -16.8,77.981 c 7.38,1.218 16.8,1.902 26.77,1.902 17.21,0 29.09,-3.543 37.56,-10.645 8.87,-7.246 14.34,-18.164 14.34,-33.875 0,-16.386 -5.6,-28.671 -14.34,-36.593 -9.15,-8.328 -23.76,-12.567 -41.65,-12.567 -9.84,0 -17.21,0.547 -22.68,1.231 v 90.547"
         style="fill:#231f20;fill-opacity:1;fill-rule:nonzero;stroke:none"
         id="path62" />
      <path
         d="m 1231.9,332.82 v -92.039 h -16.79 v 92.039 h 16.79"
         style="fill:#231f20;fill-opacity:1;fill-rule:nonzero;stroke:none"
         id="path64" />
      <path
         d="m 1263.83,259.082 c 5.47,-3.144 13.66,-5.867 22.26,-5.867 10.79,0 16.8,5.047 16.8,12.555 0,6.964 -4.64,11.066 -16.39,15.293 -15.16,5.468 -24.85,13.527 -24.85,26.769 0,15.027 12.56,26.492 32.5,26.492 9.97,0 17.34,-2.176 22.12,-4.636 l -4.09,-13.528 c -3.28,1.778 -9.7,4.375 -18.3,4.375 -10.66,0 -15.3,-5.73 -15.3,-11.062 0,-7.102 5.33,-10.383 17.62,-15.157 15.98,-6.007 23.76,-14.074 23.76,-27.312 0,-14.75 -11.2,-27.727 -34.96,-27.727 -9.7,0 -19.8,2.871 -24.85,5.879 l 3.68,13.926"
         style="fill:#231f20;fill-opacity:1;fill-rule:nonzero;stroke:none"
         id="path66" />
      <path
         d="m 1364.99,332.82 v -36.863 h 38.92 v 36.863 h 16.8 v -92.039 h -16.8 v 40.559 h -38.92 v -40.559 h -16.8 v 92.039 h 16.8"
         style="fill:#231f20;fill-opacity:1;fill-rule:nonzero;stroke:none"
         id="path68" />
      <path
         d="m 1494.38,240.781 v 92.039 h 19.12 l 23.77,-39.461 c 6.14,-10.246 11.47,-20.898 15.7,-30.859 h 0.27 c -1.09,12.285 -1.5,24.172 -1.5,38.23 v 32.09 h 15.57 v -92.039 h -17.34 l -24.04,40.559 c -5.87,9.969 -12.02,21.305 -16.53,31.687 l -0.41,-0.136 c 0.69,-11.887 0.82,-24.043 0.82,-39.2 v -32.91 h -15.43"
         style="fill:#231f20;fill-opacity:1;fill-rule:nonzero;stroke:none"
         id="path70" />
      <path
         d="m 1644.56,279.57 -7.25,22.664 c -1.77,5.598 -3.27,11.887 -4.64,17.207 h -0.27 c -1.36,-5.32 -2.73,-11.746 -4.37,-17.207 l -7.1,-22.664 z m -26.36,-12.707 -7.93,-26.082 h -17.34 l 29.5,92.039 h 21.44 l 29.91,-92.039 h -18.03 l -8.33,26.082 h -29.22"
         style="fill:#231f20;fill-opacity:1;fill-rule:nonzero;stroke:none"
         id="path72" />
      <path
         d="m 1706.24,318.758 h -26.22 v 14.062 h 69.51 v -14.062 h -26.49 v -77.977 h -16.8 v 77.977"
         style="fill:#231f20;fill-opacity:1;fill-rule:nonzero;stroke:none"
         id="path74" />
      <path
         d="m 1790.19,332.82 v -92.039 h -16.8 v 92.039 h 16.8"
         style="fill:#231f20;fill-opacity:1;fill-rule:nonzero;stroke:none"
         id="path76" />
      <path
         d="m 1835.5,286.395 c 0,-18.711 9.42,-33.731 25.54,-33.731 16.25,0 25.4,15.156 25.4,34.414 0,17.344 -8.61,33.867 -25.4,33.867 -16.66,0 -25.54,-15.566 -25.54,-34.55 z m 68.69,1.367 c 0,-30.867 -18.71,-48.485 -44.11,-48.485 -25.95,0 -42.34,19.805 -42.34,46.844 0,28.274 17.76,48.203 43.71,48.203 26.9,0 42.74,-20.34 42.74,-46.562"
         style="fill:#231f20;fill-opacity:1;fill-rule:nonzero;stroke:none"
         id="path78" />
      <path
         d="m 1931.72,240.781 v 92.039 h 19.12 l 23.76,-39.461 c 6.15,-10.246 11.47,-20.898 15.71,-30.859 h 0.27 c -1.09,12.285 -1.5,24.172 -1.5,38.23 v 32.09 h 15.57 v -92.039 h -17.35 l -24.03,40.559 c -5.87,9.969 -12.02,21.305 -16.53,31.687 l -0.41,-0.136 c 0.69,-11.887 0.82,-24.043 0.82,-39.2 v -32.91 h -15.43"
         style="fill:#231f20;fill-opacity:1;fill-rule:nonzero;stroke:none"
         id="path80" />
      <path
         d="m 2081.9,279.57 -7.24,22.664 c -1.77,5.598 -3.28,11.887 -4.65,17.207 h -0.27 c -1.36,-5.32 -2.73,-11.746 -4.37,-17.207 l -7.1,-22.664 z m -26.36,-12.707 -7.92,-26.082 h -17.35 l 29.51,92.039 h 21.44 l 29.9,-92.039 h -18.02 l -8.33,26.082 h -29.23"
         style="fill:#231f20;fill-opacity:1;fill-rule:nonzero;stroke:none"
         id="path82" />
      <path
         d="m 2137.02,332.82 h 16.79 v -77.976 h 37.83 v -14.063 h -54.62 v 92.039"
         style="fill:#231f20;fill-opacity:1;fill-rule:nonzero;stroke:none"
         id="path84" />
      <path
         d="m 2265.74,332.82 v -36.863 h 38.92 v 36.863 h 16.8 v -92.039 h -16.8 v 40.559 h -38.92 v -40.559 h -16.79 v 92.039 h 16.79"
         style="fill:#231f20;fill-opacity:1;fill-rule:nonzero;stroke:none"
         id="path86" />
      <path
         d="m 2405.26,281.609 h -34.68 V 254.57 h 38.79 v -13.789 h -55.59 v 92.039 h 53.53 v -13.789 h -36.73 v -23.758 h 34.68 v -13.664"
         style="fill:#231f20;fill-opacity:1;fill-rule:nonzero;stroke:none"
         id="path88" />
      <path
         d="m 2453.84,290.898 h 9.97 c 11.34,0 18.44,6.016 18.44,15.165 0,10.097 -7.1,14.746 -18.03,14.746 -5.33,0 -8.74,-0.411 -10.38,-0.821 z m -16.66,40.704 c 6.28,1.082 15.7,1.902 25.4,1.902 13.24,0 22.25,-2.176 28.41,-7.371 5.05,-4.231 7.92,-10.656 7.92,-18.438 0,-11.875 -8.06,-19.933 -16.66,-23.078 v -0.406 c 6.55,-2.465 10.51,-8.879 12.83,-17.758 2.87,-11.473 5.33,-22.117 7.23,-25.672 h -17.34 c -1.36,2.735 -3.54,10.242 -6.14,21.719 -2.6,12.012 -6.96,15.84 -16.53,16.113 h -8.46 v -37.832 h -16.66 v 90.821"
         style="fill:#231f20;fill-opacity:1;fill-rule:nonzero;stroke:none"
         id="path90" />
      <path
         d="m 2544.75,332.82 v -92.039 h -16.8 v 92.039 h 16.8"
         style="fill:#231f20;fill-opacity:1;fill-rule:nonzero;stroke:none"
         id="path92" />
      <path
         d="m 2594.71,318.758 h -26.22 V 332.82 H 2638 v -14.062 h -26.5 v -77.977 h -16.79 v 77.977"
         style="fill:#231f20;fill-opacity:1;fill-rule:nonzero;stroke:none"
         id="path94" />
      <path
         d="m 2696.69,279.57 -7.24,22.664 c -1.77,5.598 -3.28,11.887 -4.65,17.207 h -0.27 c -1.37,-5.32 -2.73,-11.746 -4.36,-17.207 l -7.11,-22.664 z m -26.36,-12.707 -7.92,-26.082 h -17.34 l 29.49,92.039 h 21.45 l 29.9,-92.039 h -18.03 l -8.33,26.082 h -29.22"
         style="fill:#231f20;fill-opacity:1;fill-rule:nonzero;stroke:none"
         id="path96" />
      <path
         d="m 2822.69,245.02 c -5.87,-2.188 -17.35,-5.196 -29.63,-5.196 -15.57,0 -27.32,3.965 -36.06,12.293 -8.19,7.785 -12.98,19.934 -12.84,33.867 0,29.094 20.76,47.793 51.22,47.793 11.33,0 20.21,-2.312 24.44,-4.363 l -3.69,-13.527 c -5.05,2.187 -11.2,3.965 -20.89,3.965 -19.66,0 -33.46,-11.61 -33.46,-33.047 0,-20.899 12.84,-33.321 31.96,-33.321 6.01,0 10.52,0.813 12.7,1.907 v 22.949 h -16.25 v 13.242 h 32.5 V 245.02"
         style="fill:#231f20;fill-opacity:1;fill-rule:nonzero;stroke:none"
         id="path98" />
      <path
         d="m 2904.44,281.609 h -34.68 V 254.57 h 38.78 v -13.789 h -55.58 v 92.039 h 53.53 v -13.789 h -36.73 v -23.758 h 34.68 v -13.664"
         style="fill:#231f20;fill-opacity:1;fill-rule:nonzero;stroke:none"
         id="path100" />
      <path
         d="m 2994.38,252.938 c 2.18,-0.411 5.04,-0.411 8.87,-0.411 10.79,0 20.35,4.094 20.35,15.434 0,10.652 -9.28,15.016 -20.89,15.016 h -8.33 z m 0,42.335 h 8.6 c 11.61,0 18.16,5.457 18.16,13.243 0,8.601 -6.55,12.57 -17.2,12.57 -4.93,0 -7.79,-0.277 -9.56,-0.688 z m -16.67,36.329 c 5.33,1.082 15.02,1.902 24.45,1.902 12.43,0 20.08,-1.492 26.36,-5.867 5.73,-3.418 9.56,-9.422 9.56,-17.207 0,-8.465 -5.33,-16.25 -15.3,-19.942 v -0.273 c 9.7,-2.453 18.58,-10.098 18.58,-22.805 0,-8.191 -3.56,-14.609 -8.88,-18.984 -6.56,-5.731 -17.34,-8.602 -34.14,-8.602 -9.29,0 -16.4,0.684 -20.63,1.231 v 90.547"
         style="fill:#231f20;fill-opacity:1;fill-rule:nonzero;stroke:none"
         id="path102" />
      <path
         d="m 3082.41,286.395 c 0,-18.711 9.43,-33.731 25.54,-33.731 16.26,0 25.41,15.156 25.41,34.414 0,17.344 -8.6,33.867 -25.41,33.867 -16.66,0 -25.54,-15.566 -25.54,-34.55 z m 68.7,1.367 c 0,-30.867 -18.71,-48.485 -44.11,-48.485 -25.95,0 -42.34,19.805 -42.34,46.844 0,28.274 17.75,48.203 43.7,48.203 26.9,0 42.75,-20.34 42.75,-46.562"
         style="fill:#231f20;fill-opacity:1;fill-rule:nonzero;stroke:none"
         id="path104" />
      <path
         d="m 3221.38,279.57 -7.24,22.664 c -1.78,5.598 -3.28,11.887 -4.65,17.207 h -0.27 c -1.37,-5.32 -2.74,-11.746 -4.37,-17.207 l -7.11,-22.664 z m -26.36,-12.707 -7.92,-26.082 h -17.34 l 29.49,92.039 h 21.44 l 29.91,-92.039 h -18.03 l -8.33,26.082 h -29.22"
         style="fill:#231f20;fill-opacity:1;fill-rule:nonzero;stroke:none"
         id="path106" />
      <path
         d="m 3293.16,290.898 h 9.97 c 11.34,0 18.44,6.016 18.44,15.165 0,10.097 -7.1,14.746 -18.03,14.746 -5.33,0 -8.74,-0.411 -10.38,-0.821 z m -16.66,40.704 c 6.28,1.082 15.71,1.902 25.4,1.902 13.25,0 22.26,-2.176 28.41,-7.371 5.05,-4.231 7.92,-10.656 7.92,-18.438 0,-11.875 -8.05,-19.933 -16.66,-23.078 v -0.406 c 6.56,-2.465 10.52,-8.879 12.83,-17.758 2.88,-11.473 5.34,-22.117 7.24,-25.672 h -17.34 c -1.36,2.735 -3.55,10.242 -6.15,21.719 -2.59,12.012 -6.96,15.84 -16.52,16.113 h -8.47 v -37.832 h -16.66 v 90.821"
         style="fill:#231f20;fill-opacity:1;fill-rule:nonzero;stroke:none"
         id="path108" />
      <path
         d="m 3384.07,253.621 c 2.33,-0.406 5.87,-0.406 9.29,-0.406 21.85,-0.141 34.82,11.875 34.82,35.23 0.14,20.344 -11.61,31.953 -32.63,31.953 -5.34,0 -9.15,-0.41 -11.48,-0.957 z m -16.79,77.981 c 7.37,1.218 16.79,1.902 26.76,1.902 17.21,0 29.09,-3.543 37.56,-10.645 8.88,-7.246 14.34,-18.164 14.34,-33.875 0,-16.386 -5.6,-28.671 -14.34,-36.593 -9.15,-8.328 -23.77,-12.567 -41.66,-12.567 -9.83,0 -17.21,0.547 -22.66,1.231 v 90.547"
         style="fill:#231f20;fill-opacity:1;fill-rule:nonzero;stroke:none"
         id="path110" />
    </g>
  </g>
</svg>
