<?xml version="1.0" encoding="utf-8"?>
<!-- Generator: Adobe Illustrator 27.3.1, SVG Export Plug-In . SVG Version: 6.00 Build 0)  -->
<svg version="1.1"
	 id="svg2" xmlns:sodipodi="http://sodipodi.sourceforge.net/DTD/sodipodi-0.dtd" xmlns:svg="http://www.w3.org/2000/svg" xmlns:inkscape="http://www.inkscape.org/namespaces/inkscape" sodipodi:docname="LO_GUeng_cen2rSV.eps"
	 xmlns="http://www.w3.org/2000/svg" xmlns:xlink="http://www.w3.org/1999/xlink" x="0px" y="0px" viewBox="0 0 136.1 101.3"
	 style="enable-background:new 0 0 136.1 101.3;" xml:space="preserve">
<style type="text/css">
	.st0{fill:#FFFFFF;}
</style>
<sodipodi:namedview  bordercolor="#000000" borderopacity="0.25" id="namedview4" inkscape:deskcolor="#d1d1d1" inkscape:pagecheckerboard="0" inkscape:pageopacity="0.0" inkscape:showpageshadow="2" pagecolor="#ffffff">
	</sodipodi:namedview>
<g id="g8" transform="matrix(1.3333333,0,0,-1.3333333,0,101.28)" inkscape:groupmode="layer" inkscape:label="ink_ext_XXXXXX">
	<g id="g10" transform="scale(0.1)">
		<path id="path12" class="st0" d="M507.1,404.1c-79.6,1.7-143,67.9-141.3,147.5c0.8,38.6,16.6,74.5,44.5,101.2
			c27.9,26.7,64.5,40.9,103,40.1c79.6-1.7,143-67.9,141.3-147.5c-0.8-38.6-16.6-74.5-44.5-101.2
			C582.3,417.5,545.7,403.2,507.1,404.1z M402.1,661.4c-30.2-28.9-47.3-67.8-48.2-109.5c-1.9-86.2,66.7-157.8,152.9-159.7
			c41.7-0.9,81.3,14.5,111.5,43.4c30.2,28.9,47.3,67.8,48.2,109.5c1.9,86.2-66.7,157.8-152.9,159.7
			C471.9,705.6,432.3,690.2,402.1,661.4"/>
		<path id="path14" class="st0" d="M505.9,346.9c-111.2,2.4-199.6,94.8-197.2,205.9c1.2,53.8,23.2,104,62.1,141.2
			c38.9,37.3,90,57.1,143.8,56c53.8-1.2,104-23.2,141.2-62.1c37.2-38.9,57.1-90,56-143.8l0,0C709.4,432.9,617,344.5,505.9,346.9z
			 M364.2,701c-40.7-39-63.8-91.5-65.1-147.9c-2.5-116.4,90.1-213.2,206.5-215.7c116.4-2.5,213.2,90.1,215.7,206.6l0,0
			c1.2,56.4-19.6,109.9-58.6,150.6c-39,40.7-91.6,63.8-148,65.1C458.4,760.8,404.9,740,364.2,701"/>
		<path id="path16" class="st0" d="M552.3,422.9C473.9,408.8,411,439.3,399.5,477c-7.4,24.3,3.4,29.6,5.1,47.2
			c-13.6-7.2-16.1,11.6-4.1,13.2c12.7,1.7,18.4-11.6,12.2-29.3c-8.9-25.5,6.7-37.3,11.1-36c0.2,1.3,1.8,4.6,2.6,6
			c-10.7,13.6-6.2,33.5,12,35.1c7.4,0.7,6.7-4.7,1.5-5.5c-14-2-13.3-17.6-7.5-19.6c1,0,2.2,0.3,3.2,1.3c-0.2,3.2,2,7.7,5.6,6.8
			c8-2,5-12.3-0.6-13.1c-2.1-6.3-6-15.1-5.2-19.7c0.8-4.6,4-5.5,6.7-2.8c1.9,1.9,2.9,6.6,4.1,11.7c-1.3,5.8,1.5,10.1,6.4,8.1
			c3.4-1.4,3.8-6.6,0.4-10.7c-0.4-4.9-2.6-10.5-2.1-14.3c0.5-3.8,5.7-3.5,7.5-1.5c1.9,2,3.8,15.4,4.6,18.4
			c-2.9,2.6-1.8,10.5,4.2,10.9c7,0.6,5.4-9,3.4-11.4c2-7.5-1.2-15.9,0.2-19.2c1.4-3.3,6.9-4.1,9.4-1.4c2.5,2.7-0.6,8.5,0.7,15.2
			c-2.4,5.8,0.4,10.5,3.8,10.7c7.8,0.6,5.6-6.4,4.2-11.4c0.4-5.1,1.3-11.1,3-15.8c1.1-3,6.1-3.7,7.8,0.2c1,2.4-1.3,9.3-1.9,14.2
			c-3.4,7.9-0.5,10,2.5,10.3c2.9,0.2,6.8-1.4,6.3-9.2c1.6-5.3,2.9-11.6,4.9-15.7c0.9-3.3,4.9-3.6,6.2-0.2c1.2,3.4-1.1,7.5-3.6,13
			c-5.6,5.5-0.5,9.7,2.7,9.9c3.2,0.3,8.2-0.6,7.2-9.1c1.7-5.2,2.9-9.9,4-12.6c1.3-3.2,5.7-3.5,7.6-1.5c1.9,2.1-1.7,5.7-2.7,10.2
			c-4.2,4.1-3.5,9.7,1.4,10.1c2.5,0.2,7.3-0.1,6.9-7.3c1.4-3.1,1.4-7.1,3.5-10.5c2.5-4.1,6.4-2.6,8,1.1c1.5,3.8-8.2,14.6-0.6,15.2
			c7.6,0.6,8.9-9.4,11.4-11.8c2.5-2.4,4.3-0.8,5.5,0.5c2,2.2-3.3,8.2,0.4,9.9c7.4,3.4,7.3-5.1,12.6-5.2
			c23.1-0.4,41.2,37.5,38.6,48.2c-7.7,4.6-5,16,1.5,16.1c15.9,0.3,13.7-22.2,1.6-48.3C607.8,443.5,568.9,425.9,552.3,422.9"/>
		<path id="path18" class="st0" d="M572.8,609.3c-2.6-2.5-10.7-3-14.8-0.6c-3.4,2-4.2,17.1-2.5,21.2c1.7,4.1,19.4,4.2,20.8,1.4
			C577.8,628.5,575.4,611.8,572.8,609.3z M541.1,627.9c0.6-2.1,2.7-11.6,3.2-17.4c0.3-2.1-0.5-4.7-1.8-5.2
			c-3.2-1.2-8.5-0.9-11.3,0.2c-3.2,1.2-1,13.8-12.6,16c1.6,1.1,2.4,2.3,2.8,5.1c0.2,1.8,2.4,3.8,5.2,4.1c5.3,0.6,8.6,0.8,10.4,0.7
			C538.6,631.3,540.5,630.1,541.1,627.9z M518.7,565.5c-6.8,0.1-9.3,42.4-2.3,42.2C522.6,607.6,523.3,565.4,518.7,565.5z M585.9,603
			c-0.3,0.1-0.3,0.5-0.3,0.7c3.6,13.7,6.2,19.7,7.5,33.4c0.3,3.3-2,5.9-4.2,6.4c-8.4,2.1-12.3,2-15.6,2.3c-0.4,0-1.1,0.2-1.4,0.6
			c-1,2-2.4,7.9-2.4,11c4.9,10.4-3.9,14.1-12.2,13.9c-5.4,0.3-11-2.2-11.6-6.3c-0.7-7.9,8-10.8,11.1-11.1c0.5-1.1,1.8-6.6,2-8.8
			c0-0.3-0.2-0.6-0.6-0.6c-14-0.3-32.2-2.7-41.4-3.4c-1.3-0.2-2,0.6-2.2,1.3c-1.7,4.7-9,27,4.7,26.6c8.1-0.3,14.9,6.4,7.2,11.5
			c-2,1.3-12.4,2.6-18,1.6c-4.7-0.8-6.9-6.1-6.3-10.7c0.9-7.2-17-7.9-22.3-5.8c-3.8,1.5-8.4,6-10.1,8.9c-3.5,6.2-9.4,1.5-8.3-1.8
			c7.4-22.4,31.1-18.9,37.3-19.2c0.3,0,0.8-0.4,0.9-0.6c1.5-8.1,6.3-16.6,6.3-19.8c-3-3.3-1.7-10.3,2.5-11.5
			c-5.1-4.9-7.4-21.9-6.5-36.1c1-18,8.3-35.5,19.8-33.6c14.6,2.4,8.8,36.1,12.4,39c1.8,1.4,6.5,1,8.2,0.8c0.4,0,0.6-0.5,0.6-0.7
			c-1.2-13.2-4.3-34.5-5.1-40.1c-0.8-5.8-1.3-8.8,1.7-14.1c3.2-5.9,9.1-24.5,2.2-44.3c-0.2-0.8-0.9-1-1.1-1.1
			c-6.2-1.4-9.5-3.4-11.7-4.9c-2.4-1.7-5.1-5.1-3.3-7.2c2.6-2.4,19.2-1.4,24.4,6.2c0.1,0.2,0.5,0.9,0.5,1.1c1.8,5,4,8.6,5.7,11.7
			c7.7,14.6,8.8,32.7-1.7,40.8c-2.9,2.3-6,4.4-3.1,10.1c5.6,11,6.2,23.1,6.9,33.2c0.3,4.1,7.1,6.4,9.7,2.6
			c6.4-15.1,1.4-28.1,1.3-33.5c-0.1-5.4,1.9-7.9,2.6-11.1c4.3-19.7,2.2-35.6-1.8-56c0-0.4-0.4-0.7-0.8-0.9
			c-4.6-1.5-7.5-2.5-10.4-4.5c-2.9-2-4.1-4.7-2.8-6.1c3.9-4.4,21.4,0.4,22.7,5.4c3.3,12.5,26.8,41.3,10.4,59.8
			c-7.5,8.4-7.5,5-7.6,9.3c0,2,4.7,13.2,5.9,21.9c1.2,9-4.6,17.6-3.2,22.5c0,0.1,0.4,0.4,0.6,0.4c2.4-0.5,8.2-2,11.9-4.1
			c1.2-0.6,3.2-0.1,3.4,4.3C600.6,597.4,588.3,602.1,585.9,603"/>
		<path id="path20" class="st0" d="M437.9,541.3c-2.4,1.3-0.5,6.1,2.9,6.6c2.4,0.4,10.7,1.4,13.5,0.1c2.2-1,3.8-5.6,2.5-6.9
			C454.5,538.5,441.3,539.4,437.9,541.3z M410.4,556.5c-0.2,2.9,3.6,6.1,6.6,5.4c2.4-0.5,9.7-8.2,10-10c0.6-3.3-2-5.9-4.2-6.1
			C419.3,545.5,410.7,553.4,410.4,556.5z M411.9,572.1c-1.7-2-5.5-3.3-7.3-1.8c-2.7,2.2-3.5,11.1-1.8,14.9c1.2,2.6,7.4,4,8.6,1.1
			C412.2,584.2,413.1,573.5,411.9,572.1z M414,597.4c-3-1.5-5.8,0.5-6.1,4.3c-0.3,3.7,8.4,12.8,11.6,11.9c1.5-0.4,3.9-3.4,3.6-6
			C422.9,605.7,415.7,598.3,414,597.4z M461.3,565.1c-3.1,1.4-11.3,12.1-8.4,15c2.7,2.7,14.2,8.5,16,6.8
			C476,580.3,467.5,562.4,461.3,565.1z M428,567.2c0,2.1,10.7,9.3,14.9,7.8c3.4-1.3,8.7-14.6,5.8-16C441,555.4,428,563.8,428,567.2z
			 M430.7,599.8c1.5,0.3,8.7-10.7,7.4-14.8c-1.1-3.5-14.3-8.4-15.6-7C418.4,582,422,598,430.7,599.8z M463,596.9
			c0-3.4-11.9-9.1-14.3-7.7c-3.5,2-10.6,12.6-9.1,14.4C444.8,610,463,602.3,463,596.9z M452.8,620.2c0.7-1.6,1.6-3.7,0-5.6
			c-1.4-1.5-14-2-15.9-1.8c-4,0.3-5.8,4.3-4.5,6.4C434.7,622.9,451.4,623.2,452.8,620.2z M480.6,604.1c-0.4-2.2-4.1-3.1-5.6-2.9
			c-1.9,0.2-10.2,6.7-10.7,8.9c-0.7,3,1.3,4.8,3.2,5.3C472.5,616.7,481.1,607.3,480.6,604.1z M487.6,574.3c-1.9-1.2-5.4-1.5-6.9,0.8
			c-1,1.6-1.4,13-0.7,14.7c0.7,1.8,4.6,3.1,6.7,1.9C489.3,590.2,490.7,576.3,487.6,574.3z M475.4,562.8c1.9,0.2,5.6-0.3,6.6-2.9
			c1.2-2.9-6.8-11.9-10.5-13c-2.3-0.7-5.7,2.8-5,6.1C466.9,555.2,473.8,562.7,475.4,562.8z M496.7,588.4c-1.3,16-16.2,37.1-38,40.7
			c-23.6,3.9-60.3-5.5-64.3-40.3c-4.1-35.9,23.4-62.6,56.4-60.1C486.6,531.5,498.5,565.8,496.7,588.4"/>
		<path id="path22" class="st0" d="M445,727.8l-1-8.1l-5.2-6.2l8.1-1l6.2-5.2l1,8.1l5.2,6.2l-8.1,1L445,727.8"/>
		<path id="path24" class="st0" d="M595.7,378.8l-6.5,4.8l-8.1,0.5l4.8,6.6l0.5,8.1l6.5-4.8l8.1-0.5l-4.8-6.6L595.7,378.8"/>
		<path id="path26" class="st0" d="M424.2,379.1l6.6,4.8l8.1,0.5l-4.8,6.6l-0.5,8.1l-6.6-4.8l-8.1-0.5l4.8-6.6L424.2,379.1"/>
		<path id="path28" class="st0" d="M379.4,414l8.3,9.7c3.8,4.4,9.8,4.1,15.5-0.8c5.8-4.9,7.1-10.8,3.3-15.2l-8.3-9.7
			c-1-1.2-1.1-1.9,0.3-3l-3-2.2l-8,6.8l1.8,3.2c1.4-1.2,2-1,3,0.2l8.3,9.7c1.7,1.9,1.5,4.3-1.1,6.5c-2.6,2.3-5,2.1-6.7,0.1l-8.3-9.7
			c-1-1.2-1.1-1.9,0.3-3l-2.9-2.3l-7.3,6.2l1.7,3.3C377.7,412.7,378.4,412.8,379.4,414"/>
		<path id="path30" class="st0" d="M352.8,446.3l17.5,13.1l3.3-4.4l-5.5-18.5c-0.4-1.3-1.4-3.3-1.4-3.3s1.6,1.5,2.4,2.1l7.7,5.8
			c1.2,0.9,1.5,1.5,0.4,3l3.3,1.6l5.3-7l-2.4-2.8c-1.1,1.4-1.8,1.4-3,0.5l-12.8-9.6c-1.2-0.9-1.4-1.6-0.4-3l-3.4-1.5l-4.7,6.3
			l5,16.8c0.4,1.3,1.4,3.4,1.4,3.4s-1.6-1.5-2.5-2.2l-6.5-4.9c-1.2-0.9-1.4-1.6-0.4-3l-3.3-1.6l-5.3,7.1l2.4,2.8
			C350.9,445.3,351.6,445.3,352.8,446.3"/>
		<path id="path32" class="st0" d="M359.5,479.7l4.6-9.2l-2.9-2.3c-0.8,1.6-1.5,1.7-2.8,1l-14.4-7.1c-1.4-0.7-1.7-1.3-0.9-2.9
			l-3.6-0.9l-4.5,9.2l2.9,2.3c0.8-1.6,1.4-1.7,2.8-1l14.4,7.1c1.4,0.7,1.7,1.3,0.9,2.9L359.5,479.7"/>
		<path id="path34" class="st0" d="M327,507.2l23.6-2.1l2.1-7l-18.7-14.5c-1.4-1-1.5-1.6-1-3.2l-3.7-0.3l-2.9,9.8l3.2,1.8
			c0.5-1.4,1-1.6,2.2-0.7l9,6.8c1.5,1,4.7,2.5,4.7,2.5s-3.5-0.4-5.4-0.3l-11.4,1.1c-1.5,0.1-1.8-0.5-1.4-2l-3.7-0.3l-2.6,8.7
			l3.2,1.7C324.8,507.7,325.2,507.4,327,507.2"/>
		<path id="path36" class="st0" d="M344.4,544.2l1.9-21.2l-3.5-1.1c-0.2,1.8-0.8,2.1-2.3,2l-16-1.5c-1.6-0.1-2.1-0.6-1.9-2.4
			l-3.7,0.5l-1.8,20.2l6.5,0.6l0.8-2.8c-2.1-0.5-2.5-1.1-2.3-4.2l0.4-4.7l6.6,0.6l-0.4,4.3c-0.2,1.8-0.5,2.5-2,2.3l0.4,3l6.5,0.6
			l1-2.9c-1.5-0.1-1.7-0.8-1.6-2.6l0.4-4.3l7.2,0.7l-0.6,6.5c-0.3,2.8-1.1,3.3-3.1,3.5l0.3,3L344.4,544.2"/>
		<path id="path38" class="st0" d="M322.7,569.9l-0.4-4.1l7.8-0.9l0.4,3.9c0.3,3-1,4.7-3.4,5C324.7,574.2,323,572.9,322.7,569.9z
			 M347.4,581.3l-0.9-8.1c-4.3-3.6-11,0.1-11.6-5.4l-0.4-3.3l5.2-0.6c1.5-0.2,2.1,0.1,2.3,1.9l3.5-1.2l-1.1-10.1l-3.7-0.4
			c0.2,1.8-0.3,2.2-1.8,2.4l-15.9,1.8c-1.5,0.2-2.1-0.2-2.3-1.9l-3.5,1.2l1.5,13.8c0.8,6.7,3.9,10.3,9,9.8c3.3-0.4,5.4-2.4,6.3-6
			c1.3,3.3,4.5,3.8,6.5,4c2.3,0.2,3.1,0.6,3.3,2.6l0.1,0.6L347.4,581.3"/>
		<path id="path40" class="st0" d="M353,598.9c-1.7-5.1-4.5-8.3-5.9-9.7l-5.2,3.2l0.8,2.4c3.3,0,5.3,2.6,6.2,5.3
			c0.7,2.1,0.4,4.5-1.8,5.3c-1.9,0.6-3.2-0.6-5.4-4.6c-2.1-4.1-5.6-7.9-10.9-6.1c-5.2,1.7-6.6,7.2-4.7,13.1c1.4,4.5,3.8,7.6,5.1,9
			l4.9-3.1l-0.8-2.3c-2.9-0.3-4.6-2.7-5.2-4.8c-0.7-2.3-0.2-4.3,1.5-4.9c1.7-0.5,2.9,0.7,4.5,3.7c2.9,5.5,6,9.1,11.8,7.2
			C353.7,610.8,354.9,604.7,353,598.9"/>
		<path id="path42" class="st0" d="M365.2,628.4l-4.7-9.1l-3.6,1c0.8,1.6,0.5,2.2-0.9,2.9l-14.3,7.3c-1.4,0.7-2.1,0.6-2.9-1
			l-2.9,2.3l4.7,9.1l3.6-1c-0.8-1.6-0.5-2.2,0.9-2.9l14.3-7.3c1.4-0.7,2.1-0.6,2.9,1L365.2,628.4"/>
		<path id="path44" class="st0" d="M366.5,666.2c-1.7,0.9-2.7,0.9-4.4-1.4l-1.6-2.2l13.8-10.1c1.2-0.9,1.9-1,3,0.5l2.5-2.7l-6-8.2
			l-3.4,1.5c1.1,1.5,0.8,2.1-0.4,3l-13.8,10.1l-1.6-2.2c-1.7-2.3-1.3-3.3,0-4.6l-2.2-2l-5,4.6l14.5,19.8l6-3.4L366.5,666.2"/>
		<path id="path46" class="st0" d="M384.5,683.8c-1.4,0.8-4.2,3.1-4.2,3.1s2-3.1,2.7-4.5l2.9-6.9l5.1,4.8L384.5,683.8z M407.9,679.3
			l-7.4-6.9l-3,2.1c1,0.9,1.1,1.5-0.4,2.3l-2,1l-7.2-6.7l0.8-2.1c0.6-1.5,1.4-1.3,2.4-0.4l1.9-3.2l-6.3-5.9l-3,2.1
			c1.2,1.1,1.4,1.7,0.7,3.3l-6.9,16.3c-0.4,1-1.1,1.3-2.4,0.1l-1.9,3.2l10.6,9.9l3-2.1c-1.3-1.2-1.1-1.8-0.1-2.3l15.9-8
			c1.4-0.8,2.1-0.7,3.3,0.4L407.9,679.3"/>
		<path id="path48" class="st0" d="M423.2,688.7c-4.6-2.8-8.8-3.4-10.8-3.6l-1.8,5.8l2.1,1.3c2.5-2.1,5.7-1.5,8.2,0
			c1.9,1.2,3.2,3.2,2,5.2c-1.1,1.7-2.8,1.7-7.1,0c-4.3-1.8-9.3-2.4-12.3,2.4c-2.9,4.6-0.4,9.8,4.9,13.1c4,2.5,7.8,3.3,9.7,3.5
			l1.7-5.5l-2.1-1.3c-2.4,1.6-5.2,0.9-7.1-0.2c-2.1-1.3-3-3.2-2-4.7c0.9-1.5,2.7-1.4,5.8-0.1c5.8,2.3,10.4,3,13.7-2.2
			C431.4,697.3,428.4,691.9,423.2,688.7"/>
		<path id="path50" class="st0" d="M500.3,725.1c-1.8-0.2-2.2-0.9-2-2.3l0.3-2.1c0.2-1.4,0.5-1.7,1.5-1.6l-0.2-3.5
			c-3.9-0.8-4.6-2.5-10.5-3.3c-8-1.1-15.3,1.9-16.6,12c-1.3,9.3,4.1,14.9,12.8,16c5.2,0.7,9.2-0.8,10.9-1.5l-0.7-6.3l-2.4-0.3
			c-1.2,2.8-3.7,3.6-6.5,3.2c-5-0.7-7.3-3.9-6.4-10.1c0.8-6.3,3.5-8.7,8.4-8c1.2,0.2,2.6,0.7,3.4,1.3l-0.5,3.4
			c-0.2,1.5-0.6,2-2.5,1.7l-0.5-0.1l0.3,3.7l10.5,1.4l1.2-3.5L500.3,725.1"/>
		<path id="path52" class="st0" d="M525.5,736.2c-4.3,0.3-6.5-1.8-7-8.6c-0.5-6.8,1.3-9.3,5.6-9.7c4.4-0.4,6.5,1.8,7,8.6
			C531.6,733.4,529.9,735.9,525.5,736.2z M523.6,713c-8.2,0.7-13.8,4.9-12.9,15.3c0.8,10.3,7,13.7,15.2,13c8.4-0.7,13.8-5,13-15.3
			C538,715.6,532,712.3,523.6,713"/>
		<path id="path54" class="st0" d="M569,724.8c0.2,1.9-0.1,2.9-2.9,3.6l-2.6,0.7l-4.5-16.5c-0.4-1.5-0.2-2.1,1.5-2.6l-1.7-3.3
			l-9.8,2.7l0.2,3.7c1.8-0.5,2.2,0,2.7,1.4l4.5,16.5l-2.6,0.7c-2.8,0.8-3.5,0-4.3-1.7l-2.7,1.3l2.5,6.4l23.7-6.5l-1-6.8L569,724.8"
			/>
		<path id="path56" class="st0" d="M597.7,689.7l-9,4.6l0.9,3.6c1.6-0.8,2.2-0.5,2.9,0.9l2.8,5.5l-9.2,4.7l-2.8-5.5
			c-0.7-1.3-0.6-2,0.9-2.8l-2.3-2.9l-9.1,4.6l0.9,3.6c1.6-0.8,2.2-0.5,2.9,0.9l7.3,14.3c0.7,1.4,0.6,2-1,2.9l2.4,2.9l9-4.6l-1-3.6
			c-1.6,0.8-2.1,0.5-2.9-0.9l-2.2-4.4l9.2-4.7l2.2,4.4c0.7,1.4,0.6,2-1,2.9l2.3,2.9l9.1-4.6l-1-3.6c-1.6,0.8-2.2,0.5-2.9-0.9
			l-7.3-14.3c-0.7-1.3-0.6-2,1-2.8L597.7,689.7"/>
		<path id="path58" class="st0" d="M629.9,694c-3.3,2.7-6.4,2.2-10.7-3.1c-4.3-5.3-4.2-8.4-1-11.1c3.4-2.8,6.4-2.2,10.7,3.1
			C633.2,688.1,633.2,691.2,629.9,694z M615,676c-6.4,5.3-8.5,11.9-1.9,19.9c6.6,8,13.5,7.2,19.9,2c6.5-5.3,8.5-12,1.9-19.9
			C628.4,669.9,621.5,670.6,615,676"/>
		<path id="path60" class="st0" d="M650.3,664.8l2.1-2.6c1.7-2.1,3.5-2.2,5.1-1c1.5,1.2,1.8,2.9,0.1,5.1l-2.1,2.6L650.3,664.8z
			 M646.8,662l-6.2-5l2.5-3.1c1.9-2.3,4-2.5,5.9-1c1.8,1.5,2.1,3.7,0.2,6.1L646.8,662z M640.3,650.8l-8.4,10.5l2.3,2.9
			c1.1-1.4,1.8-1.3,3-0.4l12.5,10.1c1.2,1,1.4,1.6,0.3,3l3.3,1.6l7.9-9.8c4.2-5.3,4.7-9.8,1-12.8c-1.7-1.4-4.6-1.4-6.7-0.4
			c1.3-3.4,0.2-6.4-2.1-8.3C649.4,643.9,644.6,645.5,640.3,650.8"/>
		<path id="path62" class="st0" d="M682.7,622.4l-11.3-5.8c-5.2-2.6-10.6,0-14,6.7c-3.4,6.7-2.4,12.7,2.8,15.3l11.3,5.8
			c1.4,0.7,1.7,1.3,0.9,2.9l3.6,0.9l4.8-9.3l-2.9-2.3c-0.8,1.6-1.5,1.7-2.8,1l-11.4-5.8c-2.3-1.2-3-3.4-1.5-6.4
			c1.6-3.1,3.9-3.8,6.1-2.7l11.4,5.8c1.4,0.7,1.7,1.3,0.9,2.9l3.6,1l4.4-8.5l-2.8-2.4C684.8,623,684.1,623.1,682.7,622.4"/>
		<path id="path64" class="st0" d="M692.8,596.5l-1.1,4l-7.6-2l1-3.8c0.8-2.9,2.6-4,4.9-3.4C692.4,591.8,693.5,593.7,692.8,596.5z
			 M673.9,577l-2.1,7.9c2.7,4.9,10.3,3.9,8.9,9.3l-0.9,3.2l-5.1-1.3c-1.5-0.4-1.9-0.9-1.5-2.6l-3.7-0.2L667,603l3.3,1.7
			c0.5-1.8,1.1-2,2.6-1.6l15.5,4.1c1.5,0.4,1.9,0.9,1.5,2.6l3.7,0.1l3.6-13.4c1.7-6.5,0.1-11-4.9-12.4c-3.2-0.8-5.9,0.3-8,3.3
			c0-3.6-2.9-5.2-4.6-6.1c-2-1-2.7-1.6-2.1-3.7l0.2-0.6L673.9,577"/>
		<path id="path66" class="st0" d="M687,543.3c-0.1,1.9-0.7,2.2-2.2,2.2l-2.1-0.1c-1.4-0.1-1.8-0.4-1.7-1.3l-3.5,0.5
			c-0.5,4-2.1,4.8-2.4,10.8c-0.4,8,3.2,15.1,13.4,15.6c9.4,0.5,14.5-5.4,14.9-14.2c0.3-5.2-1.6-9.1-2.5-10.8l-6.2,1.2l-0.1,2.4
			c2.9,0.9,3.9,3.4,3.8,6.2c-0.3,5-3.2,7.6-9.5,7.2c-6.3-0.3-9-2.8-8.7-7.7c0.1-1.2,0.5-2.7,1-3.5l3.4,0.2c1.5,0.1,2,0.5,1.9,2.4
			l0,0.5l3.6-0.6l0.5-10.6l-3.6-0.9L687,543.3"/>
		<path id="path68" class="st0" d="M672.1,512.4l3.2,21l3.7,0.3c-0.3-1.8,0.2-2.2,1.8-2.5l15.8-2.4c1.5-0.2,2.1,0.1,2.4,1.8l3.4-1.3
			l-3.1-20.1l-6.5,1l-0.1,2.9c2.2,0,2.7,0.5,3.2,3.5l0.7,4.7l-6.6,1l-0.6-4.2c-0.3-1.8-0.1-2.5,1.3-2.7l-1.2-2.8l-6.5,1l-0.3,3
			c1.5-0.2,1.9,0.4,2.1,2.2l0.6,4.2l-7.1,1.1l-1-6.5c-0.4-2.8,0.3-3.5,2.2-4.1l-1-2.9L672.1,512.4"/>
		<path id="path70" class="st0" d="M681.1,470.7l-20.4,7.7l1.9,5.1l18.5,5.3c1.3,0.4,3.5,0.6,3.5,0.6s-2.1,0.5-3,0.9l-9,3.4
			c-1.4,0.5-2.1,0.4-2.7-1.3l-3.1,2l3.1,8.2l3.7-0.5c-0.6-1.7-0.2-2.2,1.2-2.8l15-5.7c1.5-0.5,2.1-0.4,2.7,1.3l3.1-2l-2.8-7.4
			l-16.8-4.8c-1.3-0.4-3.6-0.6-3.6-0.6s2.1-0.6,3.2-1l7.7-2.9c1.5-0.5,2.1-0.4,2.7,1.3l3.1-2l-3.1-8.3l-3.6,0.6
			C682.9,469.6,682.5,470.2,681.1,470.7"/>
		<path id="path72" class="st0" d="M650,460.6c2.9,4.6,6.4,6.9,8.2,7.9l4.2-4.4l-1.3-2.1c-3.2,0.8-5.8-1.2-7.3-3.6
			c-1.2-1.8-1.5-4.3,0.4-5.6c1.7-1.1,3.3-0.3,6.3,3.1c3.1,3.5,7.4,6.2,12.1,3.2c4.6-2.9,4.6-8.6,1.3-13.9c-2.5-4-5.6-6.4-7.2-7.4
			l-4,4.2l1.3,2.1c2.8-0.4,5.1,1.4,6.2,3.3c1.3,2.1,1.3,4.1-0.2,5.1c-1.5,0.9-3,0.1-5.3-2.5c-4.2-4.6-8.1-7.3-13.2-4
			C646.4,449.3,646.7,455.5,650,460.6"/>
		<path id="path74" class="st0" d="M630.5,434.7l6.8,7.7l3.2-1.8c-1.2-1.3-1-2,0.1-3l12-10.7c1.2-1,1.8-1.1,3,0.2l2.2-3l-6.8-7.7
			l-3.2,1.8c1.2,1.3,1.1,2-0.1,3l-12,10.7c-1.1,1-1.8,1.1-3-0.2L630.5,434.7"/>
		<path id="path76" class="st0" d="M613.5,419.7c4.2,3.4,8.4,4.5,10.3,4.8l2.5-5.6l-1.9-1.5c-2.7,1.8-5.9,0.8-8.1-1
			c-1.7-1.4-2.8-3.6-1.4-5.4c1.2-1.6,3-1.3,7,0.9c4.1,2.3,9,3.5,12.4-0.9c3.4-4.2,1.5-9.7-3.3-13.5c-3.7-2.9-7.4-4.3-9.2-4.7
			l-2.4,5.3l1.9,1.5c2.5-1.3,5.3-0.3,7,1.1c1.9,1.5,2.6,3.5,1.4,4.9c-1.1,1.4-2.8,1-5.8-0.6c-5.4-3-10-4.2-13.8,0.5
			C606.4,410.2,608.8,415.9,613.5,419.7"/>
		<path id="path78" class="st0" d="M465.7,359.3l-13.7,3.9l0.3,3.7l1.8-0.5c1.8-0.5,2.4-0.1,2.8,1.3l4,13.9c-1-0.5-2.6-0.7-5.4-0.3
			l1.2,4c3-0.1,4.8,0.2,7.8,3l5.6-1.6l-6-21.1c-0.4-1.5-0.1-2.1,1.7-2.6l1.8-0.5L465.7,359.3"/>
		<path id="path80" class="st0" d="M494.1,379c-2.5,0.2-4.2-0.6-4.4-2.4c-0.2-1.8,1.3-3.3,3.7-4.6c2.5,0.9,4.3,2.1,4.4,3.9
			C498,377.6,496.4,378.8,494.1,379z M493,367.6c-3.1-1.1-5.3-2.6-5.5-4.9c-0.2-2,1.8-3.7,4.7-3.9c2.8-0.3,5.2,0.9,5.3,2.9
			C497.7,364.1,495.8,366,493,367.6z M491.8,354.7c-7.5,0.7-12.1,4.2-11.6,8.7c0.4,3.9,3.7,5.9,7.4,7.1c-3,1.7-5.5,3.8-5.2,7
			c0.4,4,5.1,6.4,12.1,5.7c6.7-0.6,11-3.8,10.7-7.9c-0.3-3.1-3.1-4.8-6.3-5.9c3.4-1.8,6.3-4.3,5.9-8.3
			C504.3,356.5,499.1,354,491.8,354.7"/>
		<path id="path82" class="st0" d="M526.4,378.8c-3.3-0.3-5-2.7-4.6-6c0.3-3.1,2.2-5.1,5.3-4.8c2.9,0.3,5.4,2.3,5,5.9
			C531.9,376.3,530.3,379.1,526.4,378.8z M526.3,354.6c-1.8-0.2-5.3,0.1-6.5,0.9l-0.4,3.9c1.3-0.4,3.3-0.5,5-0.4
			c4.9,0.5,7.7,2.9,8.3,7.8c-0.9-1.5-3.4-2.9-6.1-3.1c-6.7-0.6-10.9,2.9-11.4,8.5c-0.6,5.7,3.6,10.2,10.8,10.9
			c8.4,0.8,12.8-4.2,13.5-11.5C540.3,362.9,536.5,355.6,526.3,354.6"/>
		<path id="path84" class="st0" d="M569.4,363.2l-13.7-3.6l-1.7,3.3l1.8,0.5c1.8,0.5,2.1,1.1,1.7,2.6l-3.7,14c-0.6-0.9-1.9-2-4.5-3
			l-1.1,4.1c2.6,1.4,4,2.6,5.2,6.6l5.6,1.5l5.6-21.2c0.4-1.5,1-1.8,2.8-1.4l1.8,0.5L569.4,363.2"/>
		<path id="path86" class="st0" d="M13,187.3c0,4.9,0.1,7.9,0.1,20.7c0,10.2-0.1,18.3-0.3,30l-0.5,0.5L0,239.1v4.4h36.9v-4.4
			l-10.5-0.6L26,238c-0.1-9.7-0.3-30.6-0.3-50.1c0-16.3,3.8-27.3,20.9-27.3c18,0,23.1,10.5,23.1,29.7c0,16.8-0.3,35-0.5,47.7
			l-0.5,0.5l-11.9,0.6v4.4h34.2v-4.4l-12.7-0.6l-0.5-0.5c-0.4-13.8-0.4-32.8-0.3-48.8c0.1-22.2-10.3-34.1-32-34.1
			C24.3,155,13,166,13,187.3"/>
		<path id="path88" class="st0" d="M102.1,160.7l12.7,0.6l0.5,0.5c0.4,13.8,0.4,24,0.4,37c0,12.9,0,20-0.4,39.1l-0.5,0.5l-12.7,0.6
			v4.4h24.7c15.8-22.1,33.7-47.9,46.6-66.4h0.3c-0.3,24.8-0.5,48.2-0.8,60.9l-0.5,0.5l-11.9,0.6v4.4h34.2v-4.4l-12.7-0.6l-0.5-0.5
			c-0.4-13.8-0.4-24-0.4-56.5v-25.8h-6.3c-16,22.7-35.1,49.5-51.4,72.7h-0.3c0.1-30.2,0.5-53.6,0.8-66.5l0.5-0.5l11.9-0.6v-4.4
			h-34.2L102.1,160.7"/>
		<path id="path90" class="st0" d="M205.7,160.7l12.7,0.6l0.5,0.5c0.3,4,0.4,21.4,0.4,38.9c0,17.4-0.1,32.8-0.4,37.2l-0.5,0.5
			l-12.7,0.6v4.4h39.3v-4.4l-12.5-0.6l-0.5-0.5c-0.3-3.5-0.4-21.4-0.4-38.9c0-17.4,0.3-32.8,0.4-37.2l0.5-0.5l12.5-0.6v-4.4h-39.3
			V160.7"/>
		<path id="path92" class="st0" d="M261.8,238.8l-7.8,0.4v4.4h33.9v-4.4l-11.5-0.5l-0.5-0.5c7.2-18.7,15.8-41.3,24.3-63.2h0.3
			c6.3,17.6,17.3,48.8,21.6,63.3l-0.4,0.4l-10.5,0.5v4.4h28.6v-4.4l-7.5-0.4c-6.7-17.1-22.2-57.2-32.4-83.7h-3.5
			C282.9,187.3,271.4,215.5,261.8,238.8"/>
		<path id="path94" class="st0" d="M348.7,160.7l12.7,0.6l0.5,0.5c0.1,5.9,0.4,21.4,0.4,38.9c0,17.4-0.3,32-0.4,37.2l-0.5,0.5
			l-12.7,0.6v4.4h56.7l5,2.2h1.9l0.9-28.3h-2.6c-4.7,13-8.8,19.5-11,19.6l-24.4,1.3l-0.4-0.6c-0.1-5.9-0.4-19.6-0.4-34.1
			c5.8,0,18.5,0.4,21.8,0.6l0.5,0.5l4.6,9h2.4c-0.1-3.6-0.3-9.2-0.3-12.7c0-3.4,0.1-10.6,0.3-14.5h-2.4l-4.6,10.7l-0.5,0.5
			c-4,0.1-15.5,0.4-21.8,0.4c0-16.4,0.3-29.6,0.4-36.2l0.4-0.7l26.4,1.4c2.2,0.1,8,5.4,12.7,20.7h3c-1.7-25.2-2.1-27.3-4.3-27.3
			h-64.3L348.7,160.7"/>
		<path id="path96" class="st0" d="M487.6,221.1c0,7.1-3.1,12.4-8.9,15.1c-3.2,1.6-7.2,2.5-15.4,2.5H459l-0.4-0.4
			c-0.1-5.5-0.3-22.5-0.4-37.6C480.7,201.3,487.6,208.5,487.6,221.1z M432.2,160.7l12.9,0.6l0.5,0.5c0.1,3.8,0.4,21.4,0.4,38.9
			c0,17.4-0.3,31.4-0.4,37.2l-0.5,0.5l-12.9,0.6v4.4c11.6,0,24,0.3,30.6,0.3c10.2,0,16.2-0.6,20.9-2.1c12.4-3.7,17.8-11.8,17.8-20.5
			c0-12.8-8.7-18.9-19.2-22.2v-0.3c3.4-3.9,9.2-14.5,16.7-27.6c3.2-5.7,6.3-9.9,10.6-10.2l2.8-0.1v-4.4H493l-0.5,0.5
			c-4.8,9.7-8.1,17.6-16.3,32c-1.7,3-3.2,5.4-5.2,7.6c-4.6-0.6-9-0.9-12.8-0.9c-0.1-15.4,0.3-29.8,0.4-33.7l0.5-0.5l11.9-0.6v-4.4
			h-38.9V160.7"/>
		<path id="path98" class="st0" d="M528.5,183.6h3c4.5-16.4,11.9-23.3,20.9-23.3c10.6,0,17.3,7.1,17.3,16.4
			c0,22.5-39.7,16.8-39.7,45.2c0,12,9.4,23,25.8,23c8.4,0,15.1-2.6,16.5-3l3.9,3.8h2.5l0.8-28.3h-2.7c-5.4,15.8-12.5,22.2-21.3,22.2
			c-7.6,0-14.2-5-14.2-13.6c0-21.6,40.3-18.2,40.3-45.5c0-13-9.8-25.6-30-25.6c-5.6,0-12.1,1.3-17.8,5l-2.6-5h-2.7L528.5,183.6"/>
		<path id="path100" class="st0" d="M598.4,160.7l12.7,0.6l0.5,0.5c0.3,4,0.4,21.4,0.4,38.9c0,17.4-0.1,32.8-0.4,37.2l-0.5,0.5
			l-12.7,0.6v4.4h39.3v-4.4l-12.5-0.6l-0.5-0.5c-0.3-3.5-0.4-21.4-0.4-38.9c0-17.4,0.3-32.8,0.4-37.2l0.5-0.5l12.5-0.6v-4.4h-39.3
			V160.7"/>
		<path id="path102" class="st0" d="M666.5,160.7l13.8,0.6l0.5,0.5c0.1,4.8,0.4,21.4,0.4,38.9c0,17.4,0,31.8-0.4,36.3l-0.4,0.6
			h-15.4c-2.7,0-5.9-4.7-11.2-20.3h-2.6l1,28.3h2.3l3.8-2.2h58l3.8,2.2h2.3l1-28.3h-2.6c-5.4,15.8-8.5,20.3-11.2,20.3h-15.4
			l-0.4-0.6c-0.1-3.1-0.4-20.5-0.4-38c0-17.4,0.3-32.6,0.4-37.2l0.5-0.5l14.2-0.6v-4.4h-42.1L666.5,160.7"/>
		<path id="path104" class="st0" d="M758.4,160.7l12.8,0.6l0.5,0.5c0.3,9.7,0.4,15.6,0.4,33.3c-10.7,16.3-22.5,35-28.3,43.5
			l-8.7,0.4v4.4h32.9v-4.4l-9.3-0.5l-0.5-0.5c6.3-10.6,15.2-25.4,22.1-36h0.3c7.1,12.5,15.4,27.8,19.5,36.2l-0.4,0.4l-9,0.5v4.4
			h27.9v-4.4l-7.9-0.4c-7.5-11-17.3-28.3-26.4-43.1c0-17.8,0.3-22.1,0.4-33.7l0.5-0.5l13.2-0.6v-4.4h-40L758.4,160.7"/>
		<path id="path106" class="st0" d="M926.7,200c0,26.1-10.2,39.1-26.6,39.1s-26.9-13-26.9-39.1c0-26.1,10.2-39.1,26.6-39.1
			C916.3,160.9,926.7,173.9,926.7,200z M859.3,198.7c0,29.3,18,46.2,40.8,46.2c25.7,0,40.6-18.1,40.6-43.7c0-29.3-18-46.3-40.8-46.3
			C874.1,155,859.3,173.1,859.3,198.7"/>
		<path id="path108" class="st0" d="M955.6,160.7l12.7,0.8l0.5,0.5c0.1,4.5,0.4,21.3,0.4,38.8c0,17.4-0.3,32.7-0.4,37.2l-0.5,0.5
			l-12.7,0.6v4.4h57l5,2.2h1.9l0.9-28.3h-2.6c-4.7,13-8.8,19.6-11,19.8l-24.7,1.2l-0.4-0.6c-0.1-3.8-0.4-19.6-0.4-34.1
			c5.8,0,18.5,0.4,21.6,0.6l0.5,0.5l4.6,9h2.5c-0.1-3.6-0.3-9.2-0.3-12.7c0-3.4,0.1-11.5,0.3-15.4h-2.5l-4.9,11.6l-0.5,0.5
			c-3.8,0.1-15,0.4-21.3,0.4c0-16.4,0-31,0.4-36.3l0.5-0.5l14-0.8v-4.4h-40.7L955.6,160.7"/>
		<path id="path110" class="st0" d="M42.1,45c0,28.3,19.1,44.9,44.3,44.9c9.6,0,15.1-1.6,20-3l4.3,3.8h1.9l0.9-28.3h-2.7
			c-6.5,17.3-15.6,22.2-25.2,22.2c-15,0-29.6-11.2-29.6-38.4c0-21.2,10.6-40.4,32.6-40.4c6.3,0,13.2,1.8,13.2,3.9
			c0,4.4,0.1,16.2-0.3,26.1l-0.5,0.5L88.4,37v4.4h36.2V37l-9.3-0.7l-0.5-0.5c-0.3-8.3-0.4-17.6-0.3-27.5c-1.6-3.2-14-8.3-27-8.3
			C61.1,0,42.1,16.4,42.1,45"/>
		<path id="path112" class="st0" d="M208.1,45c0,26.1-10.2,39.1-26.6,39.1c-16.4,0-26.9-13-26.9-39.1c0-26.1,10.2-39.1,26.6-39.1
			C197.7,5.8,208.1,18.9,208.1,45z M140.7,43.7c0,29.3,18,46.3,40.8,46.3c25.7,0,40.6-18.1,40.6-43.7c0-29.3-18-46.3-40.8-46.3
			C155.5,0,140.7,18.1,140.7,43.7"/>
		<path id="path114" class="st0" d="M254.8,5.7l13.8,0.6l0.5,0.5c0.1,4.8,0.4,21.4,0.4,38.9s0,31.8-0.4,36.3l-0.4,0.6h-15.4
			c-2.7,0-5.9-4.6-11.2-20.3h-2.6l1,28.3h2.3l3.8-2.2h58l3.8,2.2h2.3l1-28.3h-2.6c-5.4,15.8-8.5,20.3-11.2,20.3h-15.4l-0.4-0.6
			c-0.1-3.1-0.4-20.5-0.4-38c0-17.4,0.3-32.6,0.4-37.2l0.5-0.5l14.2-0.6V1.3h-42.1L254.8,5.7"/>
		<path id="path116" class="st0" d="M325.3,5.7L338,6.3l0.5,0.5c0.1,4.9,0.4,21.4,0.4,38.9s-0.3,33.2-0.4,37.2l-0.5,0.5l-12.7,0.6
			v4.4h37.5v-4.4l-10.7-0.6l-0.5-0.5c-0.3-4-0.4-19.3-0.4-33.7h42.8c0.1,16-0.3,30.8-0.4,33.7l-0.5,0.5l-10.7,0.6v4.4h37.5v-4.4
			l-12.7-0.6l-0.5-0.5c-0.1-3.9-0.4-21.4-0.4-38.9c0-17.4,0.3-31.5,0.4-37.2l0.5-0.5l12.7-0.6V1.3h-37.5v4.4L393,6.3l0.5,0.5
			c0.1,4.4,0.4,20.4,0.4,35.7h-42.8c0-16.4,0.1-28.3,0.4-35.7l0.5-0.5l10.7-0.6V1.3h-37.5V5.7"/>
		<path id="path118" class="st0" d="M430.7,5.7l12.7,0.6l0.5,0.5c0.1,5.9,0.4,21.4,0.4,38.9s-0.3,32-0.4,37.2l-0.5,0.5l-12.7,0.6
			v4.4h56.7l5,2.2h1.9l0.9-28.3h-2.6c-4.6,13-8.8,19.5-11,19.6l-24.4,1.3l-0.4-0.6c-0.1-5.9-0.4-19.6-0.4-34.1
			c5.8,0,18.5,0.4,21.8,0.6l0.5,0.5l4.6,9h2.4c-0.1-3.6-0.3-9.2-0.3-12.7c0-3.3,0.1-10.6,0.3-14.5h-2.4l-4.6,10.7l-0.5,0.5
			c-4,0.1-15.5,0.4-21.8,0.4c0-16.4,0.3-29.6,0.4-36.2l0.4-0.7l26.4,1.4c2.2,0.1,8,5.4,12.7,20.7h3c-1.7-25.2-2.1-27.3-4.3-27.3
			h-64.3V5.7"/>
		<path id="path120" class="st0" d="M514.2,5.7l12.7,0.6l0.5,0.5c0.4,13.8,0.4,24,0.4,37c0,12.9,0,20-0.4,39.1l-0.5,0.5l-12.7,0.6
			v4.4h24.7c15.8-22.1,33.7-47.9,46.6-66.4h0.3c-0.3,24.8-0.5,48.2-0.8,60.9l-0.5,0.5l-11.9,0.6v4.4h34.2v-4.4l-12.7-0.6l-0.5-0.5
			c-0.4-13.8-0.4-24-0.4-56.5V0.6h-6.3c-16,22.7-35.1,49.5-51.4,72.7h-0.3c0.1-30.2,0.5-53.6,0.8-66.5l0.5-0.5l11.9-0.6V1.3h-34.2
			V5.7"/>
		<path id="path122" class="st0" d="M677,26.1c0,12.3-8.4,17.1-19.8,17.1h-13.6c-0.1-16.4,0.3-29.5,0.4-36.3l0.6-0.5
			c2.5-0.1,4.8-0.1,6.3-0.1C668.5,6.2,677,13.4,677,26.1z M651.8,48.8c15.2,0,19.1,7.2,19.1,17.2c0,6.8-2.5,12-7.8,14.7
			c-3.4,1.8-8.1,2.8-15.2,2.8c-0.6,0-2.1,0-3.4-0.1l-0.5-0.6c-0.1-6.7-0.5-19.4-0.4-34L651.8,48.8z M617.8,5.7l12.7,0.6l0.5,0.5
			c0.1,4.5,0.4,21.4,0.4,38.9s-0.3,31.5-0.4,37.2l-0.5,0.5l-12.7,0.6v4.4c9.6,0,20.5,0.3,28.2,0.3c9.4,0,16.7-0.8,22.5-2.6
			c10.2-3.2,16.4-9.8,16.4-19.2c0-11.1-7.4-17.7-15.8-19.8v-0.3c13.7-0.6,21.8-8.7,21.8-19.1c0-17.6-15.8-26.7-40.8-26.7
			c-8.4,0-22,0.3-32.3,0.3L617.8,5.7"/>
		<path id="path124" class="st0" d="M718.9,32.3c0,4.9,0.1,7.9,0.1,20.7c0,10.2-0.1,18.3-0.3,30l-0.5,0.5l-12.4,0.6v4.4h37v-4.4
			l-10.5-0.6l-0.5-0.5c-0.1-9.7-0.3-30.6-0.3-50.1c0-16.3,3.8-27.3,20.9-27.3c18,0,23.1,10.5,23.1,29.7c0,16.8-0.3,35-0.5,47.7
			l-0.5,0.5l-11.9,0.6v4.4h34.2v-4.4l-12.7-0.6l-0.5-0.5c-0.4-13.8-0.4-32.8-0.3-48.8c0.1-22.2-10.3-34.1-32-34.1
			C730.1,0,718.9,11,718.9,32.3"/>
		<path id="path126" class="st0" d="M863.3,66c0,7.1-3.1,12.4-8.9,15.1c-3.2,1.6-7.2,2.5-15.4,2.5h-4.3l-0.4-0.4
			c-0.1-5.6-0.3-22.5-0.4-37.6C856.5,46.3,863.3,53.5,863.3,66z M807.9,5.7l12.9,0.6l0.5,0.5c0.1,3.8,0.4,21.4,0.4,38.9
			s-0.3,31.4-0.4,37.2l-0.5,0.5l-12.9,0.6v4.4c11.6,0,24,0.3,30.6,0.3c10.2,0,16.2-0.6,20.9-2.1c12.4-3.8,17.8-11.8,17.8-20.5
			c0-12.8-8.7-18.9-19.3-22.2v-0.3c3.4-3.9,9.2-14.5,16.7-27.6c3.2-5.7,6.3-9.9,10.6-10.2l2.8-0.1V1.3h-19.4l-0.5,0.5
			c-4.8,9.7-8.1,17.6-16.3,32c-1.7,3-3.2,5.4-5.2,7.6c-4.6-0.6-9-0.9-12.8-0.9c-0.1-15.4,0.3-29.8,0.4-33.7l0.5-0.5l11.9-0.6V1.3
			h-38.9L807.9,5.7"/>
		<path id="path128" class="st0" d="M901,45c0,28.3,19.1,44.9,44.3,44.9c9.6,0,15.1-1.6,20-3l4.3,3.8h1.9l0.9-28.3h-2.7
			c-6.5,17.3-15.6,22.2-25.2,22.2c-15,0-29.6-11.2-29.6-38.4c0-21.2,10.6-40.4,32.6-40.4c6.3,0,13.2,1.8,13.2,3.9
			c0,4.4,0.1,16.2-0.3,26.1l-0.5,0.5L947.3,37v4.4h36.2V37l-9.3-0.7l-0.5-0.5c-0.3-8.3-0.4-17.6-0.3-27.5c-1.6-3.2-14-8.3-27-8.3
			C920,0,901,16.4,901,45"/>
	</g>
</g>
</svg>
