<svg id="Lager_1" data-name="Lager 1" xmlns="http://www.w3.org/2000/svg" width="30" height="45" viewBox="0 0 16.56 24.17">
  <defs>
    <style>
      .cls-1{fill:#e79c3d;opacity:0.1;}
      .cls-1,.cls-3{isolation:isolate;}
      .cls-2{opacity:0.25;}
      .cls-3{fill:#b3b3b3;opacity:0.6;}
      .cls-4{fill:gray;}
      .cls-5{fill:#999;}
      .cls-6{fill:#333;}
      .cls-7{fill:#666;}
      .cls-8{fill:#e79c3d;stroke:#cb8935;stroke-miterlimit:9.99;}
    </style>
  </defs>
  <circle class="cls-1" cx="8.25" cy="8" r="2.9"/>
  <g class="cls-2">
    <path class="cls-3" d="M7.9,11.5h1a16.11,16.11,0,0,1,5.4.9,9.5,9.5,0,0,1,1.7,1,1.61,1.61,0,0,1,.6,1.3,6.41,6.41,0,0,1-1.5,4.6c-.4.5-.5,1.3-.9,1.5A2.19,2.19,0,0,0,13,22.1c-1.3.6-2,1.8-3.6,2a4.05,4.05,0,0,1-3.2-.7,26.16,26.16,0,0,1-4.8-4.6C1,17.4-.2,16.4.1,14.8c.1-.3,0-.8.2-1a3.74,3.74,0,0,1,1.5-1.3A14,14,0,0,1,7.9,11.5Z"/>
    <path class="cls-4" d="M14.7,18.3c0,.2.1.4,0,.5l-2,2.4a12.49,12.49,0,0,1-.9,1.2l-1.2.9a2,2,0,0,1-.9.5,3.17,3.17,0,0,1-2.5-.3,27,27,0,0,1-2.5-1.8l-.6-.9c-.5-.9-1.4-1.5-1.7-2.5-1.4-3.6-.1-4.1,2.3-4.8a13.71,13.71,0,0,1,8.5.2c1.8.6,2.3,1.5,1.8,3.5A3.54,3.54,0,0,1,14.7,18.3Z"/>
  </g>
  <path class="cls-8" d="M15.5,7.9c0,4.1-7.2,14.7-7.2,14.7S.7,11.9.7,7.9a7.4,7.4,0,0,1,14.8,0ZM8.3,5.1A2.9,2.9,0,1,0,11.2,8h0A2.9,2.9,0,0,0,8.3,5.1Z"/>
</svg>
