<?xml version="1.0" encoding="utf-8"?>
<!-- Generator: Adobe Illustrator 27.3.1, SVG Export Plug-In . SVG Version: 6.00 Build 0)  -->
<svg version="1.1" id="Lager_1" xmlns="http://www.w3.org/2000/svg" xmlns:xlink="http://www.w3.org/1999/xlink" x="0px" y="0px"
	 viewBox="0 0 40 60" style="enable-background:new 0 0 40 60;" xml:space="preserve">
<style type="text/css">
	.st0{opacity:0.3;fill:#FFFFFF;enable-background:new    ;}
	.st1{opacity:0.25;}
	.st2{opacity:0.6;fill:#B3B3B3;enable-background:new    ;}
	.st3{fill:#808080;}
	.st4{fill:#999999;}
	.st5{fill:#333333;}
	.st6{fill:#666666;}
	.st7{fill:#D56037;stroke:#D56037;stroke-width:2.4155;stroke-miterlimit:24.1304;}
</style>
<circle class="st0" cx="19.9" cy="20.1" r="7"/>
<g class="st1">
	<path class="st2" d="M19,28.6h2.4c4.4,0,8.9,0.7,13,2.2c1.4,0.7,2.8,1.5,4.1,2.4c0.9,0.8,1.5,1.9,1.4,3.1c0.3,4-1,8-3.6,11.1
		c-1,1.2-1.2,3.1-2.2,3.6c-1.4,0.6-2.4,1.7-2.9,3.1c-3.1,1.4-4.8,4.3-8.7,4.8c-2.7,0.5-5.5-0.1-7.7-1.7c-4.3-3.2-8.2-6.9-11.6-11.1
		c-1-3.4-3.9-5.8-3.1-9.7c0.2-0.7,0-1.9,0.5-2.4c0.9-1.4,2.2-2.4,3.6-3.1C8.9,29.1,13.9,28.3,19,28.6z"/>
	<path class="st3" d="M35.4,45c0,0.5,0.2,1,0,1.2L30.6,52c-0.7,1-1.4,2-2.2,2.9l-2.9,2.2c-0.6,0.6-1.4,1-2.2,1.2
		c-2,0.6-4.2,0.3-6-0.7c-2.1-1.3-4.1-2.8-6-4.3l-1.4-2.2c-1.2-2.2-3.4-3.6-4.1-6c-3.4-8.7-0.2-9.9,5.6-11.6c6.7-2,13.9-1.8,20.5,0.5
		c4.3,1.4,5.6,3.6,4.3,8.5C36,43.3,35.8,44.2,35.4,45z"/>
	<path class="st4" d="M35.4,45c0.2-1.4,0-2.7,0.2-4.1c0.2-1.9-0.7-3.7-2.4-4.6c-3.5-1.8-7.2-2.8-11.1-3.1c-4.9-0.3-9.7,0.8-14,3.1
		c-1.7,0.7-2.7,2.3-2.7,4.1V45c-2.4-1-2.2-3.6-2.9-5.6c-0.2-1.2,0-2.5,0.5-3.6c1-2.7,3.4-2.7,5.3-3.4c2.4-0.9,4.9-1.5,7.5-1.7H24
		c3.9,0.3,7.7,1.4,11.1,3.1c1.7,1,1.9,2.7,3.1,3.9v0.7C36.8,40.7,37.3,43.3,35.4,45z"/>
	<path class="st5" d="M29.8,49.8c-1.3,2.1-2.9,4-4.6,5.8c-3.1,2.4-7.5,2.1-10.1-0.7c-0.7-0.5-1.3-1.2-1.7-1.9
		c-0.7-1.4-2.7-2.2-2.9-4.1c-1.4-5.1-0.5-6.5,4.1-8.2c3.6-1.2,7.4-1.4,11.1-0.5C31.3,41.9,32.2,44.3,29.8,49.8z"/>
	<path class="st6" d="M29.8,49.8v-3.6c0.3-1.6-0.7-3.1-2.2-3.6c-2.2-1-4.6-0.5-6.8-1.7c-2.4,1-5.1,0.7-7.5,1.9c-2.4,1-3.7,3.5-3.1,6
		c-1.2-1-1.9-2.4-2.2-3.9c-1-3.1,0.5-5.1,3.6-6.3c1.4-0.7,2.8-1.2,4.3-1.4c2.7-0.2,5.5-0.2,8.2,0c2.7,0.3,5.2,1.4,7.2,3.1
		c1.2,0.9,1.7,2.4,1.4,3.9c-0.5,1.7-1.2,3.4-1.9,5.1C31,49.6,30.3,49.6,29.8,49.8z"/>
	<path d="M20.2,46.5c1.3-0.2,2.6,0,3.6,0.7c2.9,1.9,3.4,2.4,1.9,5.1c-0.9,1.7-2,3.2-3.4,4.6c-0.8,0.5-1.7,0.7-2.7,0.7
		c-1.4,0-1.9-0.7-2.9-1.2c-0.9-0.8-1.7-1.8-2.2-2.9c-1.2-2.4-1.2-5.1,1.4-6C17.3,46.8,18.7,46.5,20.2,46.5z"/>
</g>
<path class="st7" d="M37.3,19.9c0,9.9-17.4,35.5-17.4,35.5S1.6,29.6,1.6,19.9C1.6,10,9.6,2,19.4,2C29.3,2,37.3,10,37.3,19.9z
	 M19.9,13.1c-3.9,0-7,3.1-7,7s3.1,7,7,7s7-3.1,7-7l0,0l0,0C26.9,16.3,23.8,13.1,19.9,13.1z"/>
</svg>
