<?xml version="1.0" encoding="utf-8"?>
<!-- Generator: Adobe Illustrator 27.3.1, SVG Export Plug-In . SVG Version: 6.00 Build 0)  -->
<svg version="1.1" id="Lager_1" xmlns="http://www.w3.org/2000/svg" xmlns:xlink="http://www.w3.org/1999/xlink" x="0px" y="0px"
	 width="30px" height="45px" viewBox="0 0 30 45" style="enable-background:new 0 0 30 45;" xml:space="preserve">
<style type="text/css">
	.st0{opacity:0.8;}
	.st1{opacity:5.000000e-02;enable-background:new    ;}
	.st2{fill:#FFFFFF;}
	.st3{fill:url(#SVGID_1_);stroke:#D16C28;stroke-miterlimit:9.99;}
</style>
<g>
	<g class="st0">
		<path class="st1" d="M15.4,21.9c11.2,0,16.2,11.8,13.2,14.5s-7.7,6-13.2,6s-10.2-3.3-13.2-6S4.2,21.9,15.4,21.9z"/>
		<path class="st1" d="M16,25.1c8.7,0.2,12.9,8.6,10.6,11.5s-6.2,5.9-10.9,5.9c-4.7,0-8.5-2.9-10.7-6C2.9,33.3,7.3,24.9,16,25.1z"/>
		<path class="st1" d="M15.6,36.3c2.8,0,4.8,1.6,4.5,3.2c-0.2,1.6-2.2,2.9-4.6,2.9s-4.3-1.3-4.5-2.9C10.8,37.9,12.8,36.3,15.6,36.3z
			"/>
		<path class="st1" d="M15.6,40.4c1.5,0,2.7,0.5,2.7,1s-1.2,1-2.7,1c-1.5,0-2.6-0.5-2.7-1C12.9,40.9,14.1,40.4,15.6,40.4z"/>
		<path class="st1" d="M15.8,29.6c6.2,0.1,9.6,5,8.2,7.8c-1.4,2.8-4.5,5.1-8.4,5.1s-7-2.3-8.3-5.2C6.1,34.4,9.6,29.5,15.8,29.6z"/>
		<path class="st1" d="M15.6,33.7c3.9,0,6.3,2.7,5.7,4.8s-2.9,3.9-5.8,3.9s-5.3-1.8-5.8-4C9.3,36.4,11.7,33.7,15.6,33.7z"/>
	</g>
</g>
<circle class="st2" cx="15.4" cy="16.5" r="5.4"/>
<linearGradient id="SVGID_1_" gradientUnits="userSpaceOnUse" x1="15" y1="43.39" x2="15" y2="5.79" gradientTransform="matrix(1 0 0 -1 0 45.89)">
	<stop  offset="0" style="stop-color:#E79C3D"/>
	<stop  offset="1" style="stop-color:#C96D04"/>
</linearGradient>
<path class="st3" d="M28.8,16.3c0,7.6-13.4,23.8-13.4,23.8S1.2,23.8,1.2,16.3C1.2,8.7,7.4,2.5,15,2.5S28.8,8.7,28.8,16.3z
	 M15.4,11.1c-3,0-5.4,2.4-5.4,5.4s2.4,5.4,5.4,5.4s5.4-2.4,5.4-5.4l0,0l0,0C20.8,13.5,18.4,11.1,15.4,11.1z"/>
</svg>
