<?xml version="1.0" encoding="utf-8"?>
<!-- Generator: Adobe Illustrator 27.3.1, SVG Export Plug-In . SVG Version: 6.00 Build 0)  -->
<svg version="1.1" id="Lager_1" xmlns="http://www.w3.org/2000/svg" xmlns:xlink="http://www.w3.org/1999/xlink" x="0px" y="0px"
	 width="30px" height="45px" viewBox="0 0 30 45" style="enable-background:new 0 0 30 45;" xml:space="preserve">
<style type="text/css">
	.st0{opacity:5.000000e-02;enable-background:new    ;}
	.st1{fill:#FFFFFF;}
	.st2{fill:url(#SVGID_1_);stroke:#4590B4;stroke-miterlimit:9.99;}
</style>
<g>
	<ellipse class="st0" cx="15.2" cy="34.3" rx="12.4" ry="7.7"/>
	<ellipse class="st0" cx="15.7" cy="35.1" rx="10.6" ry="6.9"/>
	<ellipse class="st0" cx="15.5" cy="39" rx="5.4" ry="3"/>
	<ellipse class="st0" cx="15.5" cy="41" rx="3.3" ry="1"/>
	<ellipse class="st0" cx="15.6" cy="36.4" rx="8.8" ry="5.6"/>
	<ellipse class="st0" cx="15.5" cy="37.9" rx="6.6" ry="4.1"/>
</g>
<circle class="st1" cx="15.4" cy="16.5" r="5.4"/>
<linearGradient id="SVGID_1_" gradientUnits="userSpaceOnUse" x1="15" y1="798.5" x2="15" y2="836.1" gradientTransform="matrix(1 0 0 1 0 -796)">
	<stop  offset="0" style="stop-color:#55B5E4"/>
	<stop  offset="0.3024" style="stop-color:#54B2E0"/>
	<stop  offset="0.5776" style="stop-color:#50AAD5"/>
	<stop  offset="0.8415" style="stop-color:#4A9BC3"/>
	<stop  offset="0.9993" style="stop-color:#4590B4"/>
</linearGradient>
<path class="st2" d="M28.8,16.3c0,7.6-13.4,23.8-13.4,23.8S1.2,23.8,1.2,16.3C1.2,8.7,7.4,2.5,15,2.5S28.8,8.7,28.8,16.3z
	 M15.4,11.1c-3,0-5.4,2.4-5.4,5.4s2.4,5.4,5.4,5.4s5.4-2.4,5.4-5.4l0,0l0,0C20.8,13.5,18.4,11.1,15.4,11.1z"/>
</svg>
