<?xml version="1.0" encoding="utf-8"?>
<!-- Generator: Adobe Illustrator 27.3.1, SVG Export Plug-In . SVG Version: 6.00 Build 0)  -->
<svg version="1.1" id="Lager_1" xmlns="http://www.w3.org/2000/svg" xmlns:xlink="http://www.w3.org/1999/xlink" x="0px" y="0px"
	 width="30px" height="45px" viewBox="0 0 30 45" style="enable-background:new 0 0 30 45;" xml:space="preserve">
<style type="text/css">
	.st0{fill:url(#SVGID_1_);}
	.st1{opacity:0.8;}
	.st2{opacity:5.000000e-02;enable-background:new    ;}
	.st3{fill:url(#SVGID_00000004546484440136075490000008711309859638885049_);stroke:#5F8538;stroke-miterlimit:9.99;}
</style>
<radialGradient id="SVGID_1_" cx="124.3511" cy="-287.7991" r="18.4758" fx="124.1927" fy="-272.6104" gradientTransform="matrix(0.7228 0 0 -0.5585 -74.2854 -129.444)" gradientUnits="userSpaceOnUse">
	<stop  offset="6.588379e-02" style="stop-color:#000000;stop-opacity:0.3"/>
	<stop  offset="0.878" style="stop-color:#000000;stop-opacity:0"/>
</radialGradient>
<ellipse class="st0" cx="15.4" cy="32" rx="13.4" ry="10.3"/>
<g>
	<g class="st1">
		<path class="st2" d="M15,21.9c11.2,0,16.2,11.8,13.2,14.5c-3,2.7-7.7,6-13.2,6s-10.2-3.3-13.2-6C-1.2,33.8,3.8,21.9,15,21.9z"/>
		<path class="st2" d="M15.6,25.1c8.7,0.2,12.9,8.6,10.6,11.5s-6.2,5.9-10.9,5.9s-8.5-2.9-10.7-6S6.9,24.9,15.6,25.1z"/>
		<path class="st2" d="M15.2,36.4c2.8,0,4.8,1.6,4.5,3.2c-0.2,1.6-2.2,2.9-4.6,2.9s-4.3-1.3-4.5-2.9C10.4,37.9,12.4,36.3,15.2,36.4z
			"/>
		<path class="st2" d="M15.2,40.5c1.5,0,2.7,0.5,2.7,1c0,0.5-1.2,1-2.7,1c-1.5,0-2.6-0.5-2.7-1C12.5,40.9,13.7,40.5,15.2,40.5z"/>
		<path class="st2" d="M15.4,29.6c6.2,0.1,9.6,5,8.2,7.8c-1.4,2.8-4.5,5.1-8.4,5.1s-7-2.3-8.3-5.2C5.7,34.4,9.2,29.5,15.4,29.6z"/>
		<path class="st2" d="M15.2,33.8c3.9,0,6.3,2.7,5.7,4.8c-0.5,2.1-2.9,3.9-5.8,3.9s-5.3-1.8-5.8-4C8.9,36.4,11.3,33.7,15.2,33.8z"/>
	</g>
</g>
<linearGradient id="SVGID_00000077314817265347039200000013101439049667826338_" gradientUnits="userSpaceOnUse" x1="15.0607" y1="798.5319" x2="15.0607" y2="836.1319" gradientTransform="matrix(1 0 0 1 0 -796)">
	<stop  offset="0" style="stop-color:#7BA949"/>
	<stop  offset="1" style="stop-color:#5F8538"/>
</linearGradient>
<path style="fill:url(#SVGID_00000077314817265347039200000013101439049667826338_);stroke:#5F8538;stroke-miterlimit:9.99;" d="
	M28.9,16.3c0,7.6-13.4,23.8-13.4,23.8S1.3,23.8,1.3,16.3c0-7.6,6.2-13.8,13.8-13.8S28.9,8.7,28.9,16.3z M15.5,11.1
	c-3,0-5.4,2.4-5.4,5.4s2.4,5.4,5.4,5.4s5.4-2.4,5.4-5.4l0,0l0,0C20.9,13.5,18.5,11.1,15.5,11.1z"/>
</svg>
