<?xml version="1.0" encoding="utf-8"?>
<!-- Generator: Adobe Illustrator 27.3.1, SVG Export Plug-In . SVG Version: 6.00 Build 0)  -->
<svg version="1.1" id="Lager_1" xmlns="http://www.w3.org/2000/svg" xmlns:xlink="http://www.w3.org/1999/xlink" x="0px" y="0px"
	 width="45px" height="65px" viewBox="0 0 45 65" style="enable-background:new 0 0 45 65;" xml:space="preserve">
<style type="text/css">
	.st0{opacity:5.000000e-02;}
	.st1{opacity:0.1;fill:#FFFFFF;enable-background:new    ;}
	.st2{fill:url(#SVGID_1_);stroke:#AA4A2D;stroke-width:0.75;stroke-miterlimit:9.99;}
</style>
<g>
	<ellipse class="st0" cx="22.8" cy="50.4" rx="17.3" ry="10.7"/>
	<ellipse class="st0" cx="23.4" cy="51.5" rx="14.7" ry="9.6"/>
	<ellipse class="st0" cx="23.2" cy="56.9" rx="7.5" ry="4.2"/>
	<ellipse class="st0" cx="23.2" cy="59.8" rx="4.6" ry="1.4"/>
	<ellipse class="st0" cx="23.3" cy="53.3" rx="12.2" ry="7.8"/>
	<ellipse class="st0" cx="23.2" cy="55.4" rx="9.2" ry="5.7"/>
</g>
<circle class="st1" cx="23" cy="25.7" r="7.5"/>
<linearGradient id="SVGID_1_" gradientUnits="userSpaceOnUse" x1="22.5" y1="6.2739" x2="22.5" y2="58.5139">
	<stop  offset="0" style="stop-color:#D56037"/>
	<stop  offset="0.2985" style="stop-color:#D15E36"/>
	<stop  offset="0.6049" style="stop-color:#C55932"/>
	<stop  offset="0.9137" style="stop-color:#B0512C"/>
	<stop  offset="1" style="stop-color:#A94E2A"/>
</linearGradient>
<path class="st2" d="M41.6,25.4C41.6,36,23,58.5,23,58.5S3.4,35.8,3.4,25.4c0-10.6,8.6-19.1,19.1-19.1C33.1,6.3,41.6,14.8,41.6,25.4
	z M23,18.2c-4.1,0-7.5,3.4-7.5,7.5s3.4,7.5,7.5,7.5s7.5-3.4,7.5-7.5l0,0l0,0C30.5,21.5,27.2,18.2,23,18.2z"/>
</svg>
