<?xml version="1.0" encoding="UTF-8"?>
<svg id="Lager_1" data-name="Lager 1" xmlns="http://www.w3.org/2000/svg" width="16.56" height="24.17" viewBox="0 0 16.56 24.17">
  <defs>
    <style>
      .cls-1 {
        fill: #999;
      }

      .cls-2 {
        fill: #666;
      }

      .cls-3 {
        fill: #333;
      }

      .cls-4 {
        fill: gray;
      }

      .cls-5 {
        fill: #b3b3b3;
        opacity: .6;
      }

      .cls-5, .cls-6 {
        isolation: isolate;
      }

      .cls-7 {
        fill: #d56037;
        stroke: #fff;
        stroke-miterlimit: 9.99;
      }

      .cls-8 {
        opacity: .25;
      }

      .cls-6 {
        fill: #fff;
        opacity: .1;
      }
    </style>
  </defs>
  <circle class="cls-6" cx="8.25" cy="8" r="2.9"/>
  <g class="cls-8">
    <path class="cls-5" d="m7.85,11.5h1c1.8,0,3.7.3,5.4.9.6.3,1.2.6,1.7,1,.4.3.6.8.6,1.3.1,1.7-.4,3.3-1.5,4.6-.4.5-.5,1.3-.9,1.5-.6.2-1,.7-1.2,1.3-1.3.6-2,1.8-3.6,2-1.1.2-2.3,0-3.2-.7-1.8-1.3-3.4-2.9-4.8-4.6-.4-1.4-1.6-2.4-1.3-4,.1-.3,0-.8.2-1,.4-.6.9-1,1.5-1.3,2-.8,4.1-1.1,6.1-1Z"/>
    <path class="cls-4" d="m14.65,18.3c0,.2.1.4,0,.5l-2,2.4c-.3.4-.6.8-.9,1.2l-1.2.9c-.3.2-.6.4-.9.5-.8.2-1.7.1-2.5-.3-.9-.6-1.7-1.2-2.5-1.8l-.6-.9c-.5-.9-1.4-1.5-1.7-2.5-1.4-3.6-.1-4.1,2.3-4.8,2.8-.8,5.8-.8,8.5.2,1.8.6,2.3,1.5,1.8,3.5,0,.4-.1.8-.3,1.1Z"/>
    <path class="cls-1" d="m14.65,18.3c.1-.6,0-1.1.1-1.7.1-.8-.3-1.5-1-1.9-1.4-.7-3-1.2-4.6-1.3-2-.1-4,.3-5.8,1.3-.7.3-1.1,1-1.1,1.7v1.9c-1-.4-.9-1.5-1.2-2.3-.1-.5,0-1,.2-1.5.4-1.1,1.4-1.1,2.2-1.4,1-.4,2-.6,3.1-.7h3.4c1.6.1,3.2.6,4.6,1.3.7.4.8,1.1,1.3,1.6v.3c-.6.9-.4,2-1.2,2.7Z"/>
    <path class="cls-3" d="m12.35,20.3c-.6.9-1.2,1.7-1.9,2.4-1.3,1-3.1.9-4.2-.3-.3-.2-.5-.5-.7-.8-.3-.6-1.1-.9-1.2-1.7-.6-2.1-.2-2.7,1.7-3.4,1.5-.5,3.1-.6,4.6-.2,2.3.7,2.7,1.7,1.7,4Z"/>
    <path class="cls-2" d="m12.35,20.3v-1.5c.1-.7-.3-1.3-.9-1.5-.9-.4-1.9-.2-2.8-.7-1,.4-2.1.3-3.1.8-1,.4-1.5,1.5-1.3,2.5-.5-.4-.8-1-.9-1.6-.3-1.3.3-2.1,1.5-2.6.6-.3,1.2-.5,1.8-.6,1.1-.1,2.3-.1,3.4,0,1.1.1,2.1.6,3,1.3.5.4.7,1,.6,1.6-.2.7-.5,1.4-.8,2.1,0,.1-.2.1-.5.2Z"/>
    <path d="m8.35,18.9c.5-.1,1.1,0,1.5.3,1.2.8,1.4,1,.8,2.1-.4.7-.8,1.3-1.4,1.9-.3.2-.7.3-1.1.3-.6,0-.8-.3-1.2-.5-.4-.3-.7-.7-.9-1.2-.5-1-.5-2.1.6-2.5.6-.3,1.2-.4,1.7-.4Z"/>
  </g>
  <path class="cls-7" d="m15.45,7.9c0,4.1-7.2,14.7-7.2,14.7,0,0-7.6-10.7-7.6-14.7S3.95.5,8.05.5s7.4,3.3,7.4,7.4Zm-7.2-2.8c-1.6,0-2.9,1.3-2.9,2.9s1.3,2.9,2.9,2.9,2.9-1.3,2.9-2.9h0c0-1.6-1.2-2.9-2.9-2.9Z"/>
</svg>