<?xml version="1.0" encoding="utf-8"?>
<!-- Generator: Adobe Illustrator 27.3.1, SVG Export Plug-In . SVG Version: 6.00 Build 0)  -->
<svg version="1.1" id="Lager_1" xmlns="http://www.w3.org/2000/svg" xmlns:xlink="http://www.w3.org/1999/xlink" x="0px" y="0px"
	 width="30px" height="45px" viewBox="0 0 30 45" style="enable-background:new 0 0 30 45;" xml:space="preserve">
<style type="text/css">
	.st0{opacity:0.8;}
	.st1{opacity:5.000000e-02;enable-background:new    ;}
	.st2{opacity:0.1;fill:#FFFFFF;enable-background:new    ;}
	.st3{fill:url(#SVGID_1_);stroke:#777777;stroke-width:0.75;stroke-miterlimit:10;}
</style>
<g>
	<g class="st0">
		<path class="st1" d="M15.1,22.1c11.2,0,16.2,11.8,13.2,14.5s-7.7,6-13.2,6s-10.2-3.3-13.2-6S3.9,22.1,15.1,22.1z"/>
		<path class="st1" d="M15.7,25.3c8.7,0.2,12.9,8.6,10.6,11.5s-6.2,5.9-10.9,5.9s-8.5-2.9-10.7-6C2.6,33.4,6.9,25,15.7,25.3z"/>
		<path class="st1" d="M15.2,36.5c2.8,0,4.8,1.6,4.5,3.2c-0.2,1.6-2.2,2.9-4.6,2.9s-4.3-1.3-4.5-2.9C10.5,38.1,12.4,36.5,15.2,36.5z
			"/>
		<path class="st1" d="M15.2,40.6c1.5,0,2.7,0.5,2.7,1c0,0.5-1.2,1-2.7,1c-1.5,0-2.6-0.5-2.7-1C12.5,41.1,13.7,40.6,15.2,40.6z"/>
		<path class="st1" d="M15.4,29.7c6.2,0.1,9.6,5,8.2,7.8c-1.4,2.8-4.5,5.1-8.4,5.1s-7-2.3-8.3-5.2C5.8,34.6,9.2,29.6,15.4,29.7z"/>
		<path class="st1" d="M15.3,33.9c3.9,0,6.3,2.7,5.7,4.8s-2.9,3.9-5.8,3.9s-5.3-1.8-5.8-4C8.9,36.5,11.4,33.9,15.3,33.9z"/>
	</g>
</g>
<circle class="st2" cx="15.4" cy="16.3" r="5.4"/>
<linearGradient id="SVGID_1_" gradientUnits="userSpaceOnUse" x1="15" y1="107.6877" x2="15" y2="75.9601" gradientTransform="matrix(1 0 0 -1.204 0 132.0559)">
	<stop  offset="7.292829e-02" style="stop-color:#FFFFFF"/>
	<stop  offset="0.4924" style="stop-color:#FDFDFD"/>
	<stop  offset="0.6435" style="stop-color:#F6F6F6"/>
	<stop  offset="0.7513" style="stop-color:#EBEBEB"/>
	<stop  offset="0.8383" style="stop-color:#DADADA"/>
	<stop  offset="0.9129" style="stop-color:#C4C4C4"/>
	<stop  offset="0.9778" style="stop-color:#A9A9A9"/>
	<stop  offset="1" style="stop-color:#9E9E9E"/>
</linearGradient>
<path class="st3" d="M28.8,16.2c0,7.6-13.4,24.4-13.4,24.4S1.2,23.6,1.2,16.2C1.2,8.5,7.4,2.4,15,2.4S28.8,8.5,28.8,16.2z
	 M15.4,10.9c-3,0-5.4,2.4-5.4,5.4s2.4,5.4,5.4,5.4s5.4-2.4,5.4-5.4l0,0l0,0C20.8,13.4,18.4,10.9,15.4,10.9z"/>
</svg>
