<?xml version="1.0" encoding="UTF-8"?>
<svg id="Lager_1" data-name="Lager 1" xmlns="http://www.w3.org/2000/svg" width="45" height="65" viewBox="0 0 45 65">
  <defs>
    <style>
      .cls-1 {
        fill: #999;
      }

      .cls-2 {
        fill: #666;
      }

      .cls-3 {
        fill: #333;
      }

      .cls-4 {
        fill: gray;
      }

      .cls-5 {
        fill: #fff;
        opacity: .3;
      }

      .cls-5, .cls-6 {
        isolation: isolate;
      }

      .cls-6 {
        fill: #b3b3b3;
        opacity: .6;
      }

      .cls-7 {
        fill: #d56037;
        stroke: #d56037;
        stroke-miterlimit: 24.13;
        stroke-width: 2.42px;
      }

      .cls-8 {
        opacity: .25;
      }
    </style>
  </defs>
  <circle class="cls-5" cx="19.94" cy="19.31" r="7"/>
  <g class="cls-8">
    <path class="cls-6" d="m19.04,27.81h2.4c4.4,0,8.9.7,13,2.2,1.4.7,2.8,1.5,4.1,2.4.9.8,1.5,1.9,1.4,3.1.3,4-1,8-3.6,11.1-1,1.2-1.2,3.1-2.2,3.6-1.4.6-2.4,1.7-2.9,3.1-3.1,1.4-4.8,4.3-8.7,4.8-2.7.5-5.5-.1-7.7-1.7-4.3-3.2-8.2-6.9-11.6-11.1-1-3.4-3.9-5.8-3.1-9.7.2-.7,0-1.9.5-2.4.9-1.4,2.2-2.4,3.6-3.1,4.7-1.8,9.7-2.6,14.8-2.3Z"/>
    <path class="cls-4" d="m35.44,44.21c0,.5.2,1,0,1.2l-4.8,5.8c-.7,1-1.4,2-2.2,2.9l-2.9,2.2c-.6.6-1.4,1-2.2,1.2-2,.6-4.2.3-6-.7-2.1-1.3-4.1-2.8-6-4.3l-1.4-2.2c-1.2-2.2-3.4-3.6-4.1-6-3.4-8.7-.2-9.9,5.6-11.6,6.7-2,13.9-1.8,20.5.5,4.3,1.4,5.6,3.6,4.3,8.5-.2.8-.4,1.7-.8,2.5Z"/>
    <path class="cls-1" d="m35.44,44.21c.2-1.4,0-2.7.2-4.1.2-1.9-.7-3.7-2.4-4.6-3.5-1.8-7.2-2.8-11.1-3.1-4.9-.3-9.7.8-14,3.1-1.7.7-2.7,2.3-2.7,4.1v4.6c-2.4-1-2.2-3.6-2.9-5.6-.2-1.2,0-2.5.5-3.6,1-2.7,3.4-2.7,5.3-3.4,2.4-.9,4.9-1.5,7.5-1.7h8.2c3.9.3,7.7,1.4,11.1,3.1,1.7,1,1.9,2.7,3.1,3.9v.7c-1.4,2.3-.9,4.9-2.8,6.6Z"/>
    <path class="cls-3" d="m29.84,49.01c-1.3,2.1-2.9,4-4.6,5.8-3.1,2.4-7.5,2.1-10.1-.7-.7-.5-1.3-1.2-1.7-1.9-.7-1.4-2.7-2.2-2.9-4.1-1.4-5.1-.5-6.5,4.1-8.2,3.6-1.2,7.4-1.4,11.1-.5,5.6,1.7,6.5,4.1,4.1,9.6Z"/>
    <path class="cls-2" d="m29.84,49.01v-3.6c.3-1.6-.7-3.1-2.2-3.6-2.2-1-4.6-.5-6.8-1.7-2.4,1-5.1.7-7.5,1.9-2.4,1-3.7,3.5-3.1,6-1.2-1-1.9-2.4-2.2-3.9-1-3.1.5-5.1,3.6-6.3,1.4-.7,2.8-1.2,4.3-1.4,2.7-.2,5.5-.2,8.2,0,2.7.3,5.2,1.4,7.2,3.1,1.2.9,1.7,2.4,1.4,3.9-.5,1.7-1.2,3.4-1.9,5.1.2.3-.5.3-1,.5Z"/>
    <path d="m20.24,45.71c1.3-.2,2.6,0,3.6.7,2.9,1.9,3.4,2.4,1.9,5.1-.9,1.7-2,3.2-3.4,4.6-.8.5-1.7.7-2.7.7-1.4,0-1.9-.7-2.9-1.2-.9-.8-1.7-1.8-2.2-2.9-1.2-2.4-1.2-5.1,1.4-6,1.4-.7,2.8-1,4.3-1Z"/>
  </g>
  <path class="cls-7" d="m37.34,19.11c0,9.9-17.4,35.5-17.4,35.5,0,0-18.3-25.8-18.3-35.5S9.64,1.21,19.44,1.21s17.9,8,17.9,17.9Zm-17.4-6.8c-3.9,0-7,3.1-7,7s3.1,7,7,7,7-3.1,7-7h0c0-3.8-3.1-7-7-7Z"/>
</svg>