<?xml version="1.0" encoding="UTF-8"?>
<svg id="Layer_2" data-name="Layer 2" xmlns="http://www.w3.org/2000/svg" xmlns:xlink="http://www.w3.org/1999/xlink" viewBox="0 0 344.01 149.03">
  <defs>
    <style>
      .cls-1 {
        fill: url(#gradient-rainbow_2_copy);
      }

      .cls-1, .cls-2, .cls-3 {
        stroke-width: 0px;
      }

      .cls-3 {
        fill: #1d1d1b;
      }
    </style>
    <linearGradient id="gradient-rainbow_2_copy" data-name="gradient-rainbow 2 copy" x1="14.93" y1="120.14" x2="122.84" y2="9.89" gradientUnits="userSpaceOnUse">
      <stop offset=".12" stop-color="#1d71b8"/>
      <stop offset=".32" stop-color="#951b81"/>
      <stop offset=".5" stop-color="#e30613"/>
      <stop offset=".56" stop-color="#e41915"/>
      <stop offset=".66" stop-color="#e84b1a"/>
      <stop offset=".67" stop-color="#e94e1b"/>
      <stop offset=".72" stop-color="#ed6a21"/>
      <stop offset=".84" stop-color="#f9b233"/>
      <stop offset="1" stop-color="#ffed00"/>
    </linearGradient>
  </defs>
  <g id="infravis">
    <g>
      <g>
        <path class="cls-2" d="m89.79,71.41h10.24v57.79h-10.24v-57.79Z"/>
        <path class="cls-2" d="m126.68,86.61c10.79,0,17.32,6.69,17.32,17.8v24.8h-9.76v-24.49c0-5.83-2.76-8.98-7.56-8.98s-7.56,3.15-7.56,8.98v24.49h-9.76v-24.8c0-11.1,6.46-17.8,17.32-17.8Z"/>
        <path class="cls-2" d="m168.31,73.02h2.77v8.37h-1.38c-3.42,0-4.88,1.46-4.88,4.88v4.44h6.68v8.98h-6.68v29.52h-9.03v-29.52h-6.24v-8.98h6.24v-5.39c0-7.64,4.51-12.3,12.52-12.3Z"/>
        <path class="cls-2" d="m191.68,87.55h5.04v8.82h-4.09c-3.54,0-4.96,1.42-4.96,5.04v27.79h-9.76v-27.56c0-9.76,4.88-14.09,13.78-14.09Z"/>
        <path class="cls-2" d="m199.55,108.42c0-12.83,9.37-21.65,20.71-21.65,5.43,0,10.47,2.05,13.46,5.83l.08-5.04h8.66v41.65h-8.66l-.08-5.04c-2.99,3.78-8.03,5.83-13.46,5.83-11.34,0-20.71-8.9-20.71-21.57Zm21.97,12.6c6.61,0,11.89-4.65,11.89-12.6s-5.28-12.68-11.89-12.68c-7.01,0-12.2,5.12-12.2,12.68s5.2,12.6,12.2,12.6Z"/>
        <path class="cls-2" d="m247.86,77.38h9.89l11.86,38.55,11.72-38.55h9.53l-16.95,51.83h-9.04l-17.02-51.83Z"/>
        <path class="cls-2" d="m300.82,89.2h9.76v40h-9.76v-40Z"/>
        <path class="cls-2" d="m319.91,129.2v-8.43c3.31.47,5.98.63,7.79.63,4.33,0,6.3-1.26,6.3-3.86,0-2.05-1.26-3.54-4.57-5.83l-2.6-1.81c-5.12-3.54-7.32-6.85-7.32-11.42,0-7.17,5.35-11.5,14.49-11.5,1.89,0,4.17.16,6.54.55v7.72c-2.36-.31-4.17-.39-5.28-.39-4.17,0-6.3,1.26-6.3,3.46,0,1.58,1.26,2.91,4.49,5.04l2.52,1.73c5.67,3.86,8.03,7.48,8.03,12.36,0,7.72-5.83,12.28-15.83,12.28-2.13,0-5.2-.24-8.27-.55Z"/>
        <path class="cls-3" d="m309.92,73.59c2.3,2.33,2.28,6.09-.05,8.39-2.33,2.3-6.09,2.28-8.39-.05-2.3-2.33-2.28-6.09.05-8.39,2.33-2.3,6.09-2.28,8.39.05Z"/>
      </g>
      <path class="cls-1" d="m129.16,16.08c-2.51-2.53-6.47-2.75-9.22-.63-6.13-4.85-12.94-8.65-20.33-11.28,0,0,0,0,0,0-.28-.1-.55-.2-.83-.29,0,0,0,0,0,0-7.49-2.56-15.33-3.87-23.32-3.87-5.43,0-10.72.62-15.81,1.76-2.74-2.43-6.92-2.35-9.56.26-.97.95-1.59,2.12-1.88,3.35C22,16.14,3.51,41.91,3.51,71.93c0,2.55.15,5.08.42,7.59-.67.33-1.3.76-1.86,1.31-1.47,1.45-2.15,3.39-2.06,5.29-.04,1.36.41,2.72,1.35,3.82.2.27.41.54.66.78,1.27,1.28,2.91,1.96,4.58,2.06,2.88,9.52,7.72,18.39,14.32,26.05-1.45,2.65-1.07,6.03,1.16,8.29,2.32,2.34,5.87,2.7,8.58,1.07,9.67,7.72,21.15,12.79,33.42,14.74.19,1.46.84,2.88,1.96,4,2.72,2.75,7.15,2.77,9.9.05,2.75-2.72,2.77-7.15.05-9.9-1.97-1.99-4.83-2.54-7.31-1.67-4.29-9.06-6.55-19.02-6.55-29.13,0-14.17,4.5-27.83,12.46-39.14l2.33-3.11c3.88-4.9,8.45-9.28,13.59-12.99,2.74,2.23,6.77,2.08,9.34-.45,2.75-2.72,2.77-7.15.05-9.9-2.72-2.75-7.15-2.77-9.9-.05-.32.31-.59.65-.84,1-2.74-1.4-5.38-2.98-7.88-4.72.41-1.48.34-3.06-.24-4.5,10.41-6.48,22.68-10.24,35.82-10.24.15,0,.3,0,.44,0,.24,1.36.87,2.66,1.92,3.72,2.72,2.75,7.15,2.77,9.9.05,2.75-2.72,2.77-7.15.05-9.9Zm-61.26,16.74c-13.55,1.17-26.26,6.19-36.83,14.09-.26-.18-.52-.35-.79-.49,3.7-12.84,10.55-24.56,20.08-34.19,1.62,1.44,3.74,2,5.76,1.68,3.29,6.43,7.51,12.29,12.5,17.42-.3.48-.54.98-.71,1.5Zm-34.52,51.77c-.33-.71-.78-1.37-1.36-1.96-.43-.44-.91-.8-1.42-1.1,5.35-16,16.48-29.54,31.39-37.82-8.88,10.46-14.82,23.49-16.55,37.8-3.9,1.39-7.94,2.42-12.06,3.08Zm-9.64,31.45c-6.09-7.13-10.57-15.34-13.28-24.16.52-.3,1.01-.65,1.45-1.09.59-.59,1.05-1.26,1.39-1.97,2.31.3,4.64.47,6.98.55.3,1.14.89,2.21,1.78,3.11.51.52,1.09.94,1.7,1.26-.25,1.86-.45,3.73-.54,5.63-.29,5.54.06,11.03,1.02,16.42-.17.07-.34.15-.5.24Zm0-57.23s0,0,0,0c-.39,3.33-.6,6.71-.6,10.12,0,4.16.32,8.26.91,12.29-.7.33-1.36.77-1.94,1.35-.83.83-1.41,1.81-1.75,2.86-2.16-.07-4.31-.23-6.45-.5-.19-1.48-.83-2.9-1.96-4.04-.39-.4-.82-.73-1.27-1.01,3.06-7.87,7.51-14.99,13.05-21.07Zm3.86,19.28c-.34-3.02-.52-6.07-.52-9.16s.19-6.26.54-9.33c1.58-.13,3.12-.8,4.33-2,2.07-2.05,2.59-5.08,1.56-7.62,9.68-7.2,21.25-11.87,33.6-13.14-18.57,7.82-32.7,22.87-39.51,41.25ZM46.64,10.36c-9.61,10.01-16.51,22.11-20.25,35.3-1.55.15-3.07.81-4.26,1.99-2.3,2.27-2.68,5.73-1.17,8.42-5.53,6.04-10.08,13.03-13.31,20.78-.12-1.63-.19-3.27-.19-4.91,0-27.2,16.06-50.71,39.19-61.57Zm-13.32,114.93c1.28-2.6.86-5.83-1.3-8.01-1.09-1.1-2.45-1.75-3.86-1.98-.94-5.16-1.28-10.42-1-15.72.07-1.28.18-2.55.32-3.82,5.58,16.83,16.36,31.55,31.01,42.03-9.17-2.35-17.72-6.61-25.17-12.5Zm-2.45-31.88c.39-.25.75-.55,1.09-.88,1.14-1.13,1.81-2.56,2.01-4.04,3.77-.61,7.48-1.49,11.08-2.68-.09,1.45-.14,2.91-.14,4.37,0,15.79,5.25,31.12,14.7,43.55-13.69-10.16-23.67-24.28-28.74-40.32Zm27.3,12.89c0,8.52,1.52,16.94,4.43,24.86-8.83-11.72-13.75-26.13-13.75-40.98,0-1.97.1-3.92.27-5.85,5.71-2.27,11.12-5.28,16.1-8.95-4.55,9.54-7.05,20.08-7.05,30.92Zm30.09-58.49c-6.51,4.67-12.14,10.36-16.7,16.79-6.29,6.54-13.75,11.69-21.92,15.24,2.35-15.36,9.87-29.02,20.71-39.2,2.63,1.97,6.32,1.85,8.82-.38,2.78,1.93,5.69,3.67,8.74,5.2-.02.79.1,1.59.35,2.35Zm-9.71-18.49c-2.06-1.46-4.73-1.66-6.97-.62-4.75-4.85-8.78-10.41-11.91-16.51.08-.07.16-.14.24-.21,1.81-1.79,2.43-4.33,1.87-6.64,4.41-.91,8.98-1.4,13.66-1.4,7.55,0,14.97,1.23,22.04,3.65,0,0,0,0,0,0,.26.09.53.18.79.28,0,0,0,0,0,0,6.85,2.44,13.19,5.93,18.9,10.38-14.19-.06-27.44,4.01-38.63,11.07Z"/>
    </g>
  </g>
</svg>