<?xml version="1.0" encoding="UTF-8"?>
<svg id="Lager_1" data-name="Lager 1" xmlns="http://www.w3.org/2000/svg" width="202.27" height="213.2" viewBox="0 0 202.27 213.2">
  <defs>
    <style>
      .cls-1 {
        fill: #fff;
      }
    </style>
  </defs>
  <g id="Hx6gej.tif">
    <path class="cls-1" d="m29.76,53.13c1.65,0,2.78,0,3.91,0,9.9,0,19.8-.07,29.7.02,8.05.07,13.25,7.37,10.49,14.54-1.56,4.05-5.42,6.81-9.83,6.82-17.8.03-35.6.04-53.41,0-6.07-.02-10.59-4.7-10.6-10.89C0,46.15,0,28.67.01,11.19.02,4.73,4.43.05,10.53,0c6.14-.05,10.71,4.46,10.84,10.92.11,5.82.03,11.65.03,17.48,0,.47.06.94.11,1.82.81-.68,1.37-1.1,1.89-1.58C45.01,8.83,70.46-.76,99.77.07c48.78,1.39,91.23,37.51,100.46,85.43,10.59,54.97-21.02,108.05-74.9,123.15-41.82,11.72-78.24.59-108.42-30.67-4.53-4.7-4.25-11.45.32-15.57,4.45-4.02,11.04-3.57,15.36,1.14,13.41,14.57,29.77,23.82,49.35,26.91,26.25,4.14,49.65-2.51,69.75-19.84,16.13-13.9,25.44-31.76,28.4-52.82,5.53-39.28-17.78-77.46-55.51-91.2-32.67-11.9-70.2-2.17-92.85,24.07-.54.63-1.04,1.3-1.97,2.48Z"/>
  </g>
</svg>